<svg width="127" height="42" viewBox="0 0 127 42" fill="none" xmlns="http://www.w3.org/2000/svg">
<mask id="mask0" style="mask-type:alpha" maskUnits="userSpaceOnUse" x="0" y="-1" width="127" height="43">
<path d="M0.5 41.5V0H126.5V41.5H0.5Z" fill="#E72C2C" stroke="#EF5DA8"/>
</mask>
<g mask="url(#mask0)">
<path d="M686.804 8C671.152 8 671.152 22 655.609 22C640.065 22 639.957 8 624.413 8C608.87 8 608.761 22 593.217 22C577.565 22 577.565 8 561.913 8C546.261 8 546.261 22 530.717 22C515.065 22 515.065 8 499.522 8C483.87 8 483.87 22 468.326 22C452.783 22 452.348 8 436.804 8C421.152 8 421.152 22 405.609 22C390.065 22 389.848 8 374.304 8C358.652 8 358.652 22 343.109 22C327.456 22 327.456 8 311.804 8C296.152 8 296.152 22 280.609 22C264.956 22 264.957 8 249.413 8C233.87 8 233.652 22 218 22C202.348 22 202.348 8 186.804 8C171.152 8 171.152 22 155.609 22C139.956 22 139.956 8 124.304 8C108.652 8 108.652 22 93.1086 22C77.4565 22 77.4565 8 61.9131 8C46.2609 8 46.2609 22 30.7174 22C15.0652 22 15.0652 8 -0.478271 8C-16.1304 8 -16.1304 22 -31.7826 22C-47.4348 22 -47.4348 8 -63.087 8C-78.7391 8 -78.7391 22 -94.3913 22C-110.043 22 -110.043 8 -125.696 8C-141.348 8 -141.348 22 -157 22C-172.652 22 -172.652 8 -188.304 8C-203.957 8 -203.957 22 -219.609 22C-235.261 22 -235.261 8 -250.913 8C-266.565 8 -266.565 22 -282.109 22C-297.761 22 -297.761 8 -313.413 8C-329.065 8 -329.065 22 -344.717 22C-360.37 22 -360.37 8 -376.022 8C-391.674 8 -391.674 22 -407.326 22C-422.978 22 -422.978 8 -438.63 8C-453.848 8 -453.848 22 -469.5 22C-485.152 22 -485.152 8 -500.696 8C-516.239 8 -516.348 22 -532 22V42H718V22C702.348 22 702.348 8 686.804 8Z" fill="white"/>
</g>
</svg>
