<svg width="687" height="77" viewBox="0 0 687 77" fill="none" xmlns="http://www.w3.org/2000/svg">
<mask id="mask0" style="mask-type:alpha" maskUnits="userSpaceOnUse" x="0" y="0" width="687" height="77">
<rect width="687" height="77" fill="#F31313"/>
</mask>
<g mask="url(#mask0)">
<path d="M905.804 43C890.152 43 890.152 57 874.609 57C859.065 57 858.957 43 843.413 43C827.87 43 827.761 57 812.217 57C796.565 57 796.565 43 780.913 43C765.261 43 765.261 57 749.717 57C734.065 57 734.065 43 718.522 43C702.87 43 702.87 57 687.326 57C671.783 57 671.348 43 655.804 43C640.152 43 640.152 57 624.609 57C609.065 57 608.848 43 593.304 43C577.652 43 577.652 57 562.109 57C546.456 57 546.456 43 530.804 43C515.152 43 515.152 57 499.609 57C483.956 57 483.957 43 468.413 43C452.87 43 452.652 57 437 57C421.348 57 421.348 43 405.804 43C390.152 43 390.152 57 374.609 57C358.956 57 358.956 43 343.304 43C327.652 43 327.652 57 312.109 57C296.456 57 296.457 43 280.913 43C265.261 43 265.261 57 249.717 57C234.065 57 234.065 43 218.522 43C202.87 43 202.87 57 187.217 57C171.565 57 171.565 43 155.913 43C140.261 43 140.261 57 124.609 57C108.957 57 108.957 43 93.3043 43C77.6522 43 77.6522 57 62 57C46.3478 57 46.3478 43 30.6956 43C15.0435 43 15.0435 57 -0.608704 57C-16.2609 57 -16.2609 43 -31.9131 43C-47.5652 43 -47.5652 57 -63.1087 57C-78.7609 57 -78.7609 43 -94.413 43C-110.065 43 -110.065 57 -125.717 57C-141.37 57 -141.37 43 -157.022 43C-172.674 43 -172.674 57 -188.326 57C-203.978 57 -203.978 43 -219.63 43C-234.848 43 -234.848 57 -250.5 57C-266.152 57 -266.152 43 -281.696 43C-297.239 43 -297.348 57 -313 57V77H937V57C921.348 57 921.348 43 905.804 43Z" fill="white"/>
</g>
</svg>
