<svg width="78" height="27" viewBox="0 0 78 27" fill="none" xmlns="http://www.w3.org/2000/svg">
<mask id="mask0" style="mask-type:alpha" maskUnits="userSpaceOnUse" x="0" y="0" width="78" height="28">
<path d="M0.5 27V0.5H77.5V27H0.5Z" fill="#EC2727"/>
<path d="M0.5 27V0.5H77.5V27H0.5Z" stroke="black"/>
<path d="M0.5 27V0.5H77.5V27H0.5Z" stroke="black" stroke-opacity="0.2"/>
</mask>
<g mask="url(#mask0)">
<path d="M384.784 3C375.142 3 375.142 12.8824 365.567 12.8824C355.992 12.8824 355.925 3 346.35 3C336.776 3 336.709 12.8824 327.134 12.8824C317.492 12.8824 317.492 3 307.85 3C298.209 3 298.209 12.8824 288.634 12.8824C278.992 12.8824 278.992 3 269.417 3C259.776 3 259.776 12.8824 250.201 12.8824C240.626 12.8824 240.358 3 230.783 3C221.142 3 221.142 12.8824 211.567 12.8824C201.992 12.8824 201.858 3 192.283 3C182.642 3 182.642 12.8824 173.067 12.8824C163.425 12.8824 163.425 3 153.783 3C144.142 3 144.142 12.8824 134.567 12.8824C124.925 12.8824 124.925 3 115.35 3C105.776 3 105.642 12.8824 96 12.8824C86.3582 12.8824 86.3582 3 76.7834 3C67.1417 3 67.1417 12.8824 57.5669 12.8824C47.9252 12.8824 47.9252 3 38.2834 3C28.6417 3 28.6417 12.8824 19.0669 12.8824C9.4252 12.8824 9.42523 3 -0.149567 3C-9.79129 3 -9.79129 12.8824 -19.3661 12.8824C-29.0078 12.8824 -29.0078 3 -38.5826 3C-48.2244 3 -48.2243 12.8824 -57.8661 12.8824C-67.5078 12.8824 -67.5078 3 -77.1496 3C-86.7913 3 -86.7913 12.8824 -96.433 12.8824C-106.075 12.8824 -106.075 3 -115.717 3C-125.358 3 -125.358 12.8824 -135 12.8824C-144.642 12.8824 -144.642 3 -154.283 3C-163.925 3 -163.925 12.8824 -173.567 12.8824C-183.209 12.8824 -183.209 3 -192.85 3C-202.492 3 -202.492 12.8824 -212.067 12.8824C-221.709 12.8824 -221.709 3 -231.35 3C-240.992 3 -240.992 12.8824 -250.634 12.8824C-260.276 12.8824 -260.276 3 -269.917 3C-279.559 3 -279.559 12.8824 -289.201 12.8824C-298.843 12.8824 -298.843 3 -308.484 3C-317.858 3 -317.858 12.8824 -327.5 12.8824C-337.142 12.8824 -337.142 3 -346.717 3C-356.291 3 -356.358 12.8824 -366 12.8824V27H404V12.8824C394.358 12.8824 394.358 3 384.784 3Z" fill="white"/>
</g>
</svg>
