<svg width="1092" height="48" viewBox="0 0 1092 48" fill="none" xmlns="http://www.w3.org/2000/svg">
<mask id="mask0" style="mask-type:alpha" maskUnits="userSpaceOnUse" x="0" y="0" width="1092" height="48">
<rect width="1092" height="48" fill="#EE2121"/>
</mask>
<g mask="url(#mask0)">
<path d="M1092.3 14C1077.9 14 1077.9 28 1063.6 28C1049.3 28 1049.2 14 1034.9 14C1020.6 14 1020.5 28 1006.2 28C991.8 28 991.8 14 977.4 14C963 14 963 28 948.7 28C934.3 28 934.3 14 920 14C905.6 14 905.6 28 891.3 28C877 28 876.6 14 862.3 14C847.9 14 847.9 28 833.6 28C819.3 28 819.1 14 804.8 14C790.4 14 790.4 28 776.1 28C761.7 28 761.7 14 747.3 14C732.9 14 732.9 28 718.6 28C704.2 28 704.2 14 689.9 14C675.6 14 675.4 28 661 28C646.6 28 646.6 14 632.3 14C617.9 14 617.9 28 603.6 28C589.2 28 589.2 14 574.8 14C560.4 14 560.4 28 546.1 28C531.7 28 531.7 14 517.4 14C503 14 503 28 488.7 28C474.3 28 474.3 14 460 14C445.6 14 445.6 28 431.2 28C416.8 28 416.8 14 402.4 14C388 14 388 28 373.6 28C359.2 28 359.2 14 344.8 14C330.4 14 330.4 28 316 28C301.6 28 301.6 14 287.2 14C272.8 14 272.8 28 258.4 28C244 28 244 14 229.6 14C215.2 14 215.2 28 200.9 28C186.5 28 186.5 14 172.1 14C157.7 14 157.7 28 143.3 28C128.9 28 128.9 14 114.5 14C100.1 14 100.1 28 85.7 28C71.3 28 71.3 14 56.9 14C42.9 14 42.9 28 28.5 28C14.1 28 14.1 14 -0.200001 14C-14.5 14 -14.6 28 -29 28V48H1121V28C1106.6 28 1106.6 14 1092.3 14Z" fill="white"/>
</g>
</svg>
