<svg xmlns="http://www.w3.org/2000/svg" xmlns:xlink="http://www.w3.org/1999/xlink"><symbol id="cash" viewBox="0 0 47 27">
<path d="M43.0665 0H3.93347C1.71459 0 0 1.68132 0 3.85714V23.1429C0 25.3187 1.71459 27 3.93347 27H43.0665C45.2854 27 47 25.3187 47 23.1429V3.85714C47 1.78022 45.1845 0 43.0665 0ZM3.02575 24.7253V2.76923H43.5708V24.7253H3.02575Z" fill="#63D1BB"/>
<path d="M6.95925 20.8683H39.6374V6.62659H6.95925V20.8683ZM23.5 8.50571C26.4249 8.50571 28.8455 10.8793 28.8455 13.7475C28.8455 16.6156 26.4249 18.9892 23.5 18.9892C20.5751 18.9892 18.1545 16.6156 18.1545 13.7475C18.1545 10.7804 20.5751 8.50571 23.5 8.50571Z" fill="#63D1BB"/>
</symbol><symbol id="domestic" viewBox="0 0 55 23">
<path d="M40.9467 5.75002C37.307 4.75864 33.0607 4.06466 28.41 4.06466C25.478 4.06466 22.8493 4.26294 20.625 4.65949L13.75 0H0.10114L5.9651 6.14656H14.4577C9.80697 7.73277 7.58272 9.61639 7.58272 9.61639V13.3836C7.58272 13.3836 9.90811 15.2672 14.5588 16.8534H5.86396L0 23H13.6489L20.5239 18.3405C22.8492 18.7371 25.3768 18.9354 28.3088 18.9354C32.8584 18.9354 37.1048 18.2414 40.8456 17.25C39.6324 15.4655 38.9246 13.5819 38.9246 11.4009C39.0257 9.4181 39.8345 7.5345 40.9467 5.75002Z" fill="#63D1BB"/>
<path d="M44.4853 6.74121C43.1709 8.32742 42.4632 9.91361 42.4632 11.4998C42.4632 13.086 43.1709 14.6722 44.4853 16.2585C50.9559 14.0774 55 11.4998 55 11.4998C55 11.4998 50.9559 8.92224 44.4853 6.74121Z" fill="#63D1BB"/>
</symbol><symbol id="handmade" viewBox="0 0 35 34">
<path d="M0.305558 13.9528C-0.101853 16.0303 -0.101853 18.1079 0.305558 20.1854L4.48152 17.0196L0.305558 13.9528Z" fill="#63D1BB"/>
<path d="M24.852 1.586C19.9631 -0.590493 14.2594 -0.590493 9.26857 1.98172L16.9075 7.52187L24.852 1.586Z" fill="#63D1BB"/>
<path d="M34.528 13.062L29.6391 16.7225L34.6299 20.3829C35.1392 18.0086 35.1392 15.4364 34.528 13.062Z" fill="#63D1BB"/>
<path d="M9.37046 32.057C14.2594 34.5303 20.2687 34.7281 25.3613 32.1559L17.1113 26.1211L9.37046 32.057Z" fill="#63D1BB"/>
<path d="M8.04639 14.2488L1.73152 9.698C1.42596 10.3905 1.1204 11.083 0.916698 11.7756L6.31489 15.7328L8.04639 14.2488Z" fill="#63D1BB"/>
<path d="M18.9446 24.8349L27.3983 30.9686C27.7039 30.7707 28.0095 30.5729 28.2132 30.375C28.5187 30.1772 28.8243 29.8804 29.1298 29.5836L20.6761 23.4498L18.9446 24.8349Z" fill="#63D1BB"/>
<path d="M11.6112 11.5781L4.07412 6.13684C3.56486 6.6315 3.15745 7.22509 2.75003 7.81867L9.77787 12.9631L11.6112 11.5781Z" fill="#63D1BB"/>
<path d="M22.5094 22.1635L30.7595 28.1983C31.2688 27.7036 31.6762 27.11 32.0836 26.5165L24.2409 20.7784L22.5094 22.1635Z" fill="#63D1BB"/>
<path d="M15.176 8.90696L7.33339 3.16895C7.12969 3.26788 6.92598 3.46574 6.72228 3.56467C6.31487 3.86146 5.90746 4.15826 5.6019 4.55398L13.4446 10.1931L15.176 8.90696Z" fill="#63D1BB"/>
<path d="M26.0743 19.3936L33.204 24.538C33.5095 23.8455 33.8151 23.2519 34.1206 22.5594L27.9076 18.0085L26.0743 19.3936Z" fill="#63D1BB"/>
<path d="M26.8891 2.67419L0.916698 22.3615C1.1204 23.054 1.42596 23.7466 1.73152 24.4391L28.7225 3.9603C28.2132 3.46564 27.6021 3.06992 26.8891 2.67419Z" fill="#63D1BB"/>
<path d="M31.2688 6.53234C30.9632 6.13661 30.6576 5.74089 30.3521 5.44409L2.85186 26.2197C3.05557 26.7143 3.36113 27.11 3.66669 27.4068C3.76854 27.6047 3.97224 27.8026 4.0741 27.9015L31.778 7.12592C31.5743 6.92806 31.4725 6.7302 31.2688 6.53234Z" fill="#63D1BB"/>
<path d="M32.8984 8.90674L5.70373 29.4844C6.21299 29.9791 6.82411 30.4738 7.43522 30.8695L33.9169 10.8854C33.6114 10.1928 33.3058 9.50033 32.8984 8.90674Z" fill="#63D1BB"/>
</symbol><symbol id="interior" viewBox="0 0 40 62">
<g opacity="0.5">
<path d="M15.162 37.7167C14.8628 38.7119 14.9625 39.9061 15.162 41.2994C15.6608 43.8869 16.8578 47.2705 17.556 50.9527H22.6433C23.3416 47.3701 24.5386 43.9864 25.1371 41.2994C25.4363 39.9061 25.4363 38.6124 25.1371 37.7167C24.8378 36.821 24.2393 36.1244 23.1421 35.4277H17.157C15.96 36.1244 15.3615 36.821 15.162 37.7167Z" fill="#149080"/>
<path d="M26.9327 57.6211H13.1671C11.8703 57.6211 10.8728 58.6163 10.8728 59.8105V61.9999H13.1671H26.9327H29.2269V59.8105C29.2269 58.6163 28.2294 57.6211 26.9327 57.6211Z" fill="#149080"/>
<path d="M34.015 2.18943H22.3441C22.3441 0.995194 21.3466 0 20.0499 0C18.7531 0 17.7556 0.995194 17.7556 2.18943H6.08478L0 27.5668C0.798005 27.0693 1.59602 26.5717 2.59352 26.5717C3.99003 26.5717 4.78803 27.3678 5.48629 27.9649C6.18454 28.562 6.68329 28.7611 6.88279 28.7611C7.18204 28.7611 7.68079 28.4625 8.37905 27.9649C9.0773 27.4673 9.97505 26.5717 11.2718 26.5717C12.5686 26.5717 13.4663 27.3678 14.1646 27.9649C14.8628 28.4625 15.3616 28.7611 15.6608 28.7611C15.7606 28.7611 15.9601 28.6616 16.2593 28.562C16.4588 28.4625 16.7581 28.164 17.1571 27.9649C17.6559 27.5668 18.2544 26.9697 19.1521 26.7707C19.4514 26.6712 19.7506 26.6712 20.0499 26.6712C21.3466 26.6712 22.2444 27.4673 22.9426 28.0644C23.6409 28.562 24.1397 28.8606 24.4389 28.8606C24.7382 28.8606 25.2369 28.562 25.8354 28.0644C26.5337 27.4673 27.4314 26.6712 28.7282 26.6712C30.1247 26.6712 30.9227 27.4673 31.621 28.0644C31.9202 28.363 32.2194 28.562 32.5187 28.6616C32.7182 28.7611 32.9177 28.8606 33.1172 28.8606C33.4165 28.8606 33.9152 28.562 34.5137 27.9649C35.212 27.3678 36.1097 26.5717 37.4065 26.5717C38.404 26.5717 39.202 27.0693 40 27.5668L34.015 2.18943Z" fill="#149080"/>
<path d="M23.4415 53.1426H16.5587C15.8604 53.1426 15.4614 53.6402 15.4614 54.2373C15.4614 54.8344 15.9602 55.332 16.5587 55.332H23.4415C24.1397 55.332 24.5387 54.8344 24.5387 54.2373C24.6385 53.6402 24.1397 53.1426 23.4415 53.1426Z" fill="#149080"/>
<path d="M20.0499 28.7598C19.9502 28.7598 19.7507 28.8593 19.4514 28.9588C19.2519 29.0583 19.0524 29.2574 18.8529 29.3569V33.0391H21.1472V29.4564C20.6484 29.0583 20.2494 28.7598 20.0499 28.7598Z" fill="#149080"/>
</g>
</symbol><symbol id="like" viewBox="0 0 34 27">
<path d="M34 8.44964C34 3.78777 29.9818 0 25.0364 0C21.5333 0 18.5455 1.94245 17 4.66187C15.5576 1.94245 12.4667 0 8.96364 0C4.01818 0 0 3.78777 0 8.44964C0 17.2878 15.1455 27 17 27C18.9576 27 34 17.3849 34 8.44964Z" fill="#63D1BB"/>
</symbol><symbol id="mail" viewBox="0 0 32 21">
<path opacity="0.2" d="M28 0H4C1.8 0 0 1.8 0 4V17C0 19.2 1.8 21 4 21H28C30.2 21 32 19.2 32 17V4C32 1.8 30.2 0 28 0ZM2 5.3L9 10.6L2 15.9V5.3ZM30 17C30 18.1 29.1 19 28 19H4C2.9 19 2 18.1 2 17L9.8 11.1L14.2 14.4C14.7 14.8 15.4 15 16 15C16.6 15 17.3 14.8 17.8 14.4L22.2 11.1L30 17ZM30 15.8L23 10.5L30 5.2V15.8ZM17.2 13.6C16.8 13.9 16.4 14 16 14C15.6 14 15.1 13.9 14.8 13.6L10.7 10.5L9.9 9.9L2 4C2 2.9 2.9 2 4 2H28C29.1 2 30 2.9 30 4L17.2 13.6Z" fill="black"/>
</symbol><symbol id="map-pin" viewBox="0 0 67 100">
<path d="M57.1276 9.15178C44.0322 -3.05059 22.917 -3.05059 9.82159 9.15178C-3.27386 21.3542 -3.27386 41.0962 9.82159 53.2986C9.82159 53.2986 33.4746 74.9256 33.4746 99.9256C33.4746 74.9256 57.1276 53.2986 57.1276 53.2986C70.2231 41.1954 70.2231 21.3542 57.1276 9.15178Z" fill="white"/>
<path d="M47.6871 45.164C47.078 41.8902 47.7886 38.3188 47.6871 34.9458C47.5856 31.1759 46.9765 27.5053 46.9765 23.8347C46.9765 20.8585 47.4841 17.6839 46.4689 14.8069C46.5704 14.5093 46.5704 14.1124 46.672 13.8148C46.9765 12.3267 42.0023 13.1204 41.2917 14.4101C40.7841 14.8069 40.581 15.3029 40.7841 15.6997C40.8856 15.7989 40.8856 15.8982 40.8856 16.0966C39.972 20.5608 38.6523 24.8267 37.1295 29.1918C36.5204 30.8783 35.9114 32.4656 35.3023 34.0529C34.4901 32.5648 33.678 30.9775 32.9674 29.3902C31.0386 24.6283 29.2114 19.7672 26.8765 15.2037C27.1811 13.1204 22.3083 13.3188 21.3947 15.2037C20.278 17.5847 20.3795 19.9656 20.7856 22.4458C21.1917 25.3228 21.2932 28.1005 21.2932 30.9775C21.3947 36.5331 21.8007 41.9894 21.9023 47.545C21.3947 48.1402 21.2932 48.7355 21.8007 49.4299C22.0038 49.7275 22.3083 49.9259 22.6129 50.2235C23.9326 51.2156 27.5871 50.422 27.5871 48.4378C27.5871 42.6839 27.1811 37.0291 26.978 31.2751C26.978 30.6799 26.978 30.1839 26.978 29.5886C27.0795 29.787 27.1811 29.9855 27.1811 30.1839C28.0947 32.3664 29.0083 34.5489 30.328 36.6323C31.5462 38.7156 32.1553 40.8982 32.8659 43.0807C32.5614 43.3783 32.4598 43.6759 32.5614 44.0728C32.4598 44.3704 32.6629 44.4696 32.9674 44.5688C33.8811 45.3624 35.6068 44.9656 36.5204 44.5688C36.9265 44.3704 37.3326 44.172 37.7386 43.9735C38.2462 43.6759 38.9568 42.9815 38.7538 42.3862C38.7538 42.287 38.6523 42.0886 38.6523 41.9894C39.3629 40.2037 39.6674 38.418 40.0735 36.5331C40.4795 34.5489 41.1901 32.664 41.9007 30.7791C42.0023 31.672 42.0023 32.4656 42.1038 33.3585C42.4083 36.9299 42.1038 40.4021 42.1038 43.9735C42.1038 45.164 42.2053 46.2553 42.4083 47.3466C42.5098 47.8426 42.9159 49.8267 42.8144 49.9259C41.9007 50.7196 42.2053 51.7116 43.322 51.9101C44.6417 52.2077 46.2659 51.8109 47.281 50.918C48.9053 49.5291 48.0932 47.1482 47.6871 45.164Z" fill="#6BC6B3"/>
</symbol><symbol id="material" viewBox="0 0 33 38">
<path d="M16.5 38C25.575 38 33 30.6452 33 21.6559C23.925 21.6559 16.5 28.9086 16.5 38ZM4.74375 16.6505C4.74375 19.2043 6.80625 21.1452 9.28125 21.1452C10.2094 21.1452 11.1375 20.8387 11.8594 20.328V20.6344C11.8594 23.1882 13.9219 25.129 16.3969 25.129C18.975 25.129 20.9344 23.086 20.9344 20.6344V20.328C21.6562 20.8387 22.5844 21.1452 23.5125 21.1452C26.0906 21.1452 28.05 19.1021 28.05 16.6505C28.05 14.8118 27.0188 13.2796 25.4719 12.5645C27.0188 11.8495 28.05 10.3172 28.05 8.47849C28.05 5.92473 25.9875 3.98387 23.5125 3.98387C22.5844 3.98387 21.6562 4.29032 20.9344 4.80107V4.49462C20.9344 1.94086 18.8719 0 16.3969 0C13.8187 0 11.8594 2.04301 11.8594 4.49462V4.80107C11.1375 4.29032 10.2094 3.98387 9.28125 3.98387C6.70312 3.98387 4.74375 6.02688 4.74375 8.47849C4.74375 10.3172 5.775 11.8495 7.32188 12.5645C5.87813 13.2796 4.74375 14.8118 4.74375 16.6505ZM16.5 7.96774C19.0781 7.96774 21.0375 10.0108 21.0375 12.4624C21.0375 15.0161 18.975 16.957 16.5 16.957C13.9219 16.957 11.9625 14.914 11.9625 12.4624C11.9625 10.0108 13.9219 7.96774 16.5 7.96774ZM0 21.6559C0 30.6452 7.425 38 16.5 38C16.5 28.9086 9.075 21.6559 0 21.6559Z" fill="#63D1BB"/>
</symbol><symbol id="mishka-logo-desktop" viewBox="0 0 149 72">
<path d="M144.16 31.1053C142.65 32.1912 141.039 32.9809 139.428 33.8693C139.428 32.1912 139.328 30.4143 138.824 28.8349C138.925 28.5388 138.925 28.1439 138.925 27.8478C139.328 24.8864 139.63 20.8391 136.912 18.7662C136.61 18.47 135.704 18.7662 134.999 19.0623C134.798 18.8649 134.697 18.7662 134.496 18.6674C134.395 18.47 134.295 18.1739 134.295 17.9765C134.295 17.8777 134.093 17.779 133.892 17.779C134.194 17.3842 134.194 16.9893 133.489 16.6932C133.087 16.4958 132.684 16.397 132.382 16.2983C132.281 16.1996 132.281 16.1996 132.181 16.1996C131.275 15.9035 130.268 15.7061 129.261 15.5086C129.362 15.2125 129.664 14.7189 129.865 14.5215C129.966 14.3241 130.167 14.2254 130.268 14.1266C130.369 14.0279 130.369 14.0279 130.469 13.9292C130.469 13.9292 130.57 13.9292 130.57 13.8305C130.57 13.8305 130.57 13.8305 130.671 13.7318C131.073 13.4356 131.476 12.8434 130.872 12.5472C130.268 12.2511 129.362 12.4485 128.859 12.7447C127.953 13.4356 127.248 14.1266 126.745 15.1138C124.732 14.9163 122.718 14.9163 120.604 15.0151C120.705 14.9163 120.705 14.8176 120.705 14.7189C120.906 14.1266 119.799 14.2254 119.497 14.2254C117.886 14.4228 116.376 14.6202 114.766 14.8176C116.175 11.0665 117.886 6.3283 115.772 2.67591C114.564 0.602929 111.847 0.109363 109.632 0.0106495C107.216 -0.0880637 104.699 0.504216 102.585 1.59006C97.7536 4.1566 95.4383 9.19098 94.331 14.5215C93.8277 13.8305 92.0157 14.1266 91.7137 15.0151C91.6131 15.3112 91.5124 15.6073 91.4117 16.0022C91.2104 16.1996 91.1097 16.397 91.1097 16.5945C91.1097 16.6932 91.1097 16.6932 91.1097 16.7919C91.0091 16.7919 91.0091 16.7919 90.9084 16.7919C90.9084 16.6932 90.9084 16.5945 91.0091 16.4958C91.1097 16.397 91.2104 16.2983 91.3111 16.1009C91.915 13.8305 92.519 11.5601 93.2237 9.3884C93.5257 8.5987 90.7071 8.99355 90.4051 9.78326C90.0024 10.9678 89.5998 12.1524 89.2978 13.3369C89.0965 13.4356 88.8951 13.5344 88.8951 13.6331V13.7318C88.7945 13.6331 88.5931 13.5344 88.3918 13.5344C88.3918 13.2382 88.3918 12.9421 88.3918 12.5472C88.3918 12.1524 85.5732 12.5472 85.5732 13.3369C85.5732 13.8305 85.5732 14.3241 85.5732 14.9163C85.3719 15.0151 85.2712 15.1138 85.0699 15.2125C84.9692 15.3112 84.9692 15.3112 84.8686 15.4099C84.7679 15.5086 84.7679 15.6073 84.7679 15.6073V15.7061C84.7679 15.7061 84.7679 15.706 84.6672 15.8048C84.5666 15.9035 84.4659 16.1009 84.6672 16.2983C84.8686 16.4958 85.1706 16.4958 85.3719 16.4958H85.4725C85.4725 16.6932 85.4725 16.7919 85.4725 16.9893C85.2712 16.9893 84.9692 16.9893 84.7679 16.9893L84.3652 16.8906C84.3652 16.4958 83.6606 16.397 82.9559 16.5945V16.4958C82.8553 15.9035 82.7546 15.3112 82.7546 14.7189C82.9559 14.6202 83.2579 14.5215 83.4593 14.4228C83.6606 14.3241 83.7613 14.2254 83.7613 14.0279C83.7613 13.9292 83.7613 13.9292 83.7613 13.8305C83.7613 13.6331 83.3586 13.6331 83.2579 13.6331C83.0566 13.6331 82.8553 13.6331 82.654 13.6331C82.5533 12.3498 82.5533 11.0665 82.5533 9.78326C82.5533 8.99355 79.7347 9.48712 79.7347 10.573C79.7347 12.3498 79.7347 14.1266 79.936 15.8048C79.8354 15.8048 79.7347 15.8048 79.634 15.8048C79.634 15.3112 79.634 14.8176 79.634 14.3241C79.634 13.3369 78.3254 13.1395 77.5201 13.5344C77.8221 13.2382 78.0234 12.9421 77.9227 12.5472C77.5201 11.1652 77.1174 9.78326 76.9161 8.30256C76.7148 6.92057 73.8962 7.61157 74.0975 9.09227C74.2988 10.573 74.7015 11.9549 75.1041 13.3369C75.3055 14.1266 76.4128 14.2254 77.2181 13.8305C77.0168 14.0279 76.8154 14.3241 76.8154 14.6202C76.8154 14.8176 76.8154 15.0151 76.8154 15.2125C76.5135 14.9163 76.3121 14.9163 75.9095 14.9163C74.8022 14.9163 74.1982 15.8048 74.5002 16.397C74.2988 16.397 74.1982 16.2983 73.9968 16.2983C73.5942 15.1138 73.2922 13.8305 73.2922 12.5472C73.2922 11.6588 71.9836 11.5601 71.1783 11.8562C71.1783 11.7575 71.1783 11.7575 71.1783 11.6588C70.7756 10.8691 70.5743 9.98068 70.3729 9.19098C70.071 7.90771 67.1517 8.5987 67.5543 9.98068C67.7557 10.573 67.8563 11.264 68.0577 11.8562C68.0577 11.8562 68.0577 11.8562 67.957 11.8562C67.655 11.9549 67.353 12.0537 67.051 12.2511C66.2457 12.3498 65.2391 12.8434 65.2391 13.4356C65.3397 13.9292 65.3397 14.4228 65.4404 14.8176C65.0377 14.9163 64.4338 14.9163 63.9304 15.0151C63.6285 14.2254 63.4271 13.4356 63.3265 12.6459C63.2258 11.7575 61.7158 11.7575 61.0112 12.3498C60.2059 10.2768 59.1992 8.40127 57.8906 6.62443C55.1727 3.26819 50.6428 2.08363 46.5156 2.97205C44.6029 3.3669 42.791 4.1566 41.4824 5.53859C40.2744 6.92057 40.0731 8.5987 40.2744 10.2768C40.4757 11.7575 40.8784 14.2254 41.885 16.1996C41.4824 16.1996 41.1804 16.1996 40.979 16.2983C40.677 16.397 40.3751 16.4958 40.1737 16.6932C38.2611 16.6932 36.2478 16.6932 34.3352 16.5945C30.1073 16.397 25.9801 15.7061 21.7522 15.9035C20.8462 15.9035 20.2422 16.5945 20.2422 17.1867C19.2356 17.6803 18.531 18.47 18.1283 19.4572C16.417 18.3713 14.6051 17.1867 12.7931 16.2983C12.0885 15.9035 9.47119 16.9893 10.4778 17.4829C12.2898 18.3713 14.1017 19.5559 15.813 20.6417C16.3163 20.9378 17.1217 20.7404 17.625 20.543C17.625 20.543 17.7256 20.543 17.8263 20.4443C17.5243 21.8263 17.625 23.5044 18.0276 24.8864C18.0276 24.9851 18.1283 25.0838 18.229 25.1825C18.229 25.4787 18.229 25.8735 18.229 26.1697C18.229 26.2684 18.229 26.2684 18.229 26.3671C17.8263 26.5645 17.5243 26.8606 17.4236 27.1568C17.2223 28.5388 17.1217 29.9208 17.1217 31.3027C16.8197 31.5002 16.6183 31.7963 16.6183 32.0924C16.417 35.35 16.6183 38.7062 17.1217 41.9638C17.323 44.629 17.8263 47.1956 18.3296 49.8608C18.4303 50.2557 18.4303 50.6505 18.531 51.1441C18.229 52.2299 18.1283 53.5132 18.3296 54.5991C17.4236 54.7965 16.6183 55.4875 17.1217 56.1785C17.927 57.363 18.7323 58.1527 19.7389 58.745C19.1349 58.6463 18.3296 58.8437 17.8263 59.3373C17.021 60.127 16.115 60.818 15.3097 61.6077C14.907 62.0025 15.0077 62.4961 15.6117 62.6935C16.3163 62.891 17.1217 62.5948 17.625 62.2C18.4303 61.4103 19.3363 60.7193 20.1416 59.9296C20.3429 59.7321 20.4436 59.436 20.3429 59.2386C23.5642 60.9167 27.5907 60.5218 31.5166 60.127C30.6106 61.7064 30.0067 63.3845 29.302 65.0627C29 65.7536 31.8186 65.4575 32.1206 64.6678C32.7246 62.9897 33.3286 61.4103 34.2345 59.8309C37.9591 59.9296 41.7844 59.9296 45.5089 59.9296C45.6096 60.127 45.9116 60.2257 46.2136 60.2257C49.5355 60.5219 52.7567 60.127 55.978 59.5347C60.8099 59.3373 65.6417 59.0411 70.4736 58.745C78.0234 58.5476 85.6739 58.4489 93.2237 58.4489C93.3243 58.5476 93.425 58.6463 93.5257 58.745C93.8277 59.0411 94.1297 59.0411 94.5323 59.0411C94.633 59.0411 94.633 59.0411 94.7336 59.0411C95.4383 59.0411 96.1429 59.1399 96.8476 59.1399C97.0489 59.1399 97.1496 59.2386 97.4516 59.1399C98.2569 59.2386 99.0622 59.2386 99.7668 59.3373C99.9682 59.5347 100.27 59.6334 100.572 59.7321C104.397 60.0283 108.223 60.2257 112.048 60.4231C112.149 60.6206 112.551 60.7193 112.853 60.7193C120 60.818 128.255 63.4832 134.597 59.0411C135.1 58.6463 134.899 58.1527 134.295 58.054C134.194 58.054 134.093 58.054 133.993 58.054C135.201 55.29 136.207 52.5261 136.912 49.5647C137.315 49.3673 137.516 49.0711 137.516 48.6763C137.516 47.4917 137.717 46.3071 137.919 45.1226C138.12 44.2342 138.221 43.3457 138.321 42.4573C138.724 40.2856 139.126 38.1139 139.328 36.041C141.643 34.9551 143.858 33.7706 145.972 32.2899C147.582 31.1053 145.166 30.4143 144.16 31.1053ZM88.3918 16.2983L88.2911 16.397C88.3918 16.1009 88.3918 15.8048 88.4925 15.5086H88.5931C88.5931 15.7061 88.4925 16.0022 88.3918 16.2983Z" fill="black"/>
<path d="M63.729 12.5468C63.8297 12.7442 64.333 12.7442 64.5343 12.7442C64.937 12.7442 65.3396 12.6455 65.6416 12.5468C66.0443 12.3494 66.7489 11.9545 66.4469 11.461C66.0443 10.8687 65.8429 10.2764 65.4403 9.68411C65.3396 9.48669 64.8363 9.48669 64.635 9.48669C64.2323 9.48669 63.8296 9.5854 63.5277 9.68411C63.125 9.88154 62.4204 10.2764 62.7223 10.77C63.0243 11.3622 63.3263 12.0532 63.729 12.5468Z" fill="black"/>
<path d="M20.8461 10.8691C21.0474 11.4613 21.9534 11.4613 22.4567 11.3626C22.96 11.2639 23.866 10.7703 23.6647 10.0793C23.4634 9.48707 23.262 8.79608 22.7587 8.30251C22.2554 7.80894 21.4501 7.90766 20.8461 8.10508C20.4434 8.30251 19.6381 8.89479 20.1414 9.38835C20.5441 9.98063 20.6448 10.2768 20.8461 10.8691Z" fill="black"/>
<path d="M30.9124 13.8306C31.7177 13.8306 34.033 12.5474 32.1204 12.5474C31.2144 12.5474 28.9998 13.8306 30.9124 13.8306Z" fill="black"/>
<path d="M123.423 12.2512C123.725 12.3499 124.128 12.2512 124.53 12.1525C124.832 12.0538 125.235 11.9551 125.436 11.659C125.839 11.2641 126.141 10.968 126.443 10.4744C126.544 10.277 126.644 10.0795 126.443 9.88212C126.242 9.68469 125.94 9.68469 125.638 9.58598C125.235 9.58598 124.832 9.68469 124.53 9.78341C124.228 9.88212 123.926 10.0795 123.725 10.3757C123.624 10.5731 123.524 10.7705 123.322 10.8693C123.222 10.968 123.222 10.968 123.121 11.0667C122.92 11.2641 122.819 11.4615 122.819 11.659C122.92 12.0538 123.121 12.1525 123.423 12.2512Z" fill="black"/>
<path d="M136.811 17.5816C137.415 17.4828 138.22 17.3841 138.724 16.8906C140.032 15.8047 141.341 14.7189 142.347 13.3369C142.649 12.942 141.341 13.1395 141.24 13.1395C140.737 13.2382 139.932 13.4356 139.529 13.8305C138.623 15.1137 137.314 16.1009 136.106 17.1867C135.603 17.5816 136.509 17.5816 136.811 17.5816Z" fill="black"/>
<path d="M147.682 44.3332C146.072 44.3332 144.461 44.3332 142.75 44.3332C142.146 44.3332 141.24 44.8268 141.139 45.4191C141.039 46.1101 141.945 46.3075 142.448 46.3075C144.059 46.3075 145.669 46.3075 147.38 46.3075C147.984 46.3075 148.89 45.8139 148.991 45.2216C149.092 44.5307 148.286 44.3332 147.682 44.3332Z" fill="black"/>
<path d="M57.3874 60.1268C56.8841 60.2255 55.9781 60.423 55.7768 60.9165C55.2734 62.1998 54.7701 63.4831 54.3675 64.7663C54.1661 65.4573 56.9847 65.0625 57.1861 64.2728C57.5887 62.9895 57.9914 61.7062 58.5954 60.423C58.7967 59.9294 57.5887 60.1268 57.3874 60.1268Z" fill="black"/>
<path d="M62.0178 62.6935C61.7158 62.6935 61.3132 62.7922 61.0112 62.8909C60.7092 62.9896 60.3065 63.0883 60.0045 63.2858C59.9039 63.3845 59.7025 63.4832 59.7025 63.6806C59.7025 63.7793 59.7025 63.8781 59.7025 63.9768C59.7025 64.0755 59.6019 64.1742 59.6019 64.2729C59.5012 64.3716 59.5012 64.4703 59.6019 64.569C59.8032 64.6678 60.1052 64.6678 60.3065 64.6678C60.7092 64.6678 61.0112 64.569 61.4138 64.3716C61.6151 64.2729 62.0178 64.1742 62.2191 63.9768C62.3198 63.7793 62.4205 63.6806 62.5211 63.4832C62.5211 63.2858 62.5211 63.1871 62.5211 62.9896C62.5211 62.6935 62.1185 62.6935 62.0178 62.6935Z" fill="black"/>
<path d="M117.483 66.3456C117.081 65.6546 114.464 66.6417 114.665 67.1353C115.47 68.7147 116.577 70.1954 117.584 71.7748C117.987 72.4658 120.604 71.38 120.403 70.9851C119.396 69.4057 118.289 67.925 117.483 66.3456Z" fill="black"/>
<path d="M121.51 63.9767C121.208 63.3844 120.403 63.3844 119.9 63.5818C119.497 63.6805 118.39 64.1741 118.692 64.7664C119.094 65.5561 119.497 66.3458 119.9 67.0368C120.202 67.629 121.007 67.629 121.51 67.4316C121.913 67.3329 123.02 66.8393 122.718 66.2471C122.316 65.5561 121.913 64.7664 121.51 63.9767Z" fill="black"/>
<path d="M5.74646 42.6544C4.2365 43.0492 2.72654 43.2467 1.21658 43.6415C0.713257 43.7402 -0.0920558 44.2338 0.00860824 44.9248C0.209936 45.6158 1.11591 45.6158 1.7199 45.5171C3.22986 45.1222 4.73982 44.9248 6.24978 44.5299C6.7531 44.4312 7.55841 43.839 7.45775 43.2467C7.15576 42.5557 6.24978 42.5557 5.74646 42.6544Z" fill="black"/>
<path d="M44.0996 39.6922C43.9989 37.0269 43.5963 34.3617 43.5963 31.6964C43.5963 29.5247 43.9989 27.2543 43.1936 25.1814C43.1936 24.9839 43.2943 24.6878 43.2943 24.4904C43.4956 23.4045 39.9724 23.9968 39.469 24.9839C39.167 25.2801 38.9657 25.5762 39.0664 25.9711C39.0664 26.0698 39.167 26.1685 39.167 26.2672C38.4624 29.426 37.5564 32.5848 36.5498 35.645C36.1471 36.8295 35.6438 38.0141 35.2411 39.1986C34.6372 38.1128 34.0332 37.0269 33.5299 35.8424C32.1206 32.3874 30.9126 28.9325 29.2013 25.6749C29.4026 24.1942 25.9801 24.2929 25.2754 25.6749C24.4701 27.353 24.5708 29.0312 24.8728 30.9067C25.1747 32.9797 25.2754 34.954 25.2754 37.0269C25.2754 40.9755 25.6781 44.924 25.6781 48.8725C25.2754 49.2674 25.1747 49.7609 25.5774 50.2545C25.7787 50.4519 25.9801 50.6494 26.1814 50.8468C27.0874 51.5378 29.7046 50.9455 29.7046 49.5635C29.7046 45.4176 29.4026 41.3703 29.302 37.2244C29.302 36.8295 29.302 36.4347 29.302 36.0398C29.4026 36.1385 29.4026 36.3359 29.5033 36.4347C30.1073 38.0141 30.8119 39.5935 31.7179 41.0742C32.6239 42.5549 33.0265 44.1343 33.5299 45.7137C33.3285 45.9111 33.2279 46.2073 33.3285 46.4047C33.3285 46.6021 33.4292 46.7008 33.6305 46.7995C34.2345 47.3918 35.5431 47.0957 36.1471 46.7995C36.4491 46.7008 36.7511 46.5034 36.9524 46.4047C37.2544 46.2073 37.8584 45.7137 37.6571 45.2201C37.6571 45.1214 37.5564 45.0227 37.5564 44.924C38.0597 43.6407 38.2611 42.3575 38.5631 40.9755C38.8651 39.5935 39.3684 38.2115 39.8717 36.8295C39.9724 37.4218 39.9724 38.1128 40.073 38.7051C40.2744 41.2716 40.073 43.7394 40.073 46.306C40.073 47.1944 40.1737 47.8854 40.2744 48.7738C40.375 49.07 40.677 50.5507 40.5763 50.6494C39.9724 51.2416 40.1737 51.9326 40.979 52.0313C41.885 52.2288 43.0929 51.9326 43.7976 51.3404C45.0056 50.2545 44.4016 48.4777 44.2003 47.0957C43.5963 44.7266 44.0996 42.0613 44.0996 39.6922Z" fill="white"/>
<path d="M52.5556 40.384C52.4549 38.4097 51.7503 36.5342 51.7503 34.5599C51.7503 32.2895 51.9516 30.0191 51.5489 27.7487C51.4483 27.0577 47.4217 27.8474 47.5224 28.8345C47.8244 30.9075 47.7237 33.0792 47.7237 35.1522C47.7237 37.2252 48.227 39.002 48.4283 41.075C48.7303 43.148 48.3277 45.2209 48.529 47.2939C48.6297 48.281 49.3343 50.0579 48.6297 50.8476C48.227 51.3412 50.1396 51.1437 50.2403 51.1437C51.0456 51.045 52.0522 50.7489 52.5556 50.1566C53.2602 49.3669 52.7569 47.7875 52.6562 46.8003C52.4549 44.5299 52.6562 42.457 52.5556 40.384Z" fill="white"/>
<path d="M69.1649 37.0275C67.051 34.2636 63.2258 36.2378 60.5078 35.4481C59.0985 35.0533 59.0985 33.1777 59.0985 32.0919C59.0985 30.7099 58.9979 29.3279 58.7965 27.9459C58.6959 26.8601 58.7965 25.8729 59.6019 25.0832C59.7025 24.9845 60.5078 24.7871 60.4072 24.7871C60.8098 24.6884 61.1118 24.6884 61.5145 24.6884C63.1251 24.5897 66.2457 24.8858 65.6417 27.1562C65.3397 28.1433 69.2656 27.5511 69.5676 26.5639C70.7756 22.0231 62.1185 22.9115 59.7025 23.5038C57.4879 24.0961 54.9713 25.3794 54.8706 27.8472C54.77 29.0318 55.1726 30.2163 55.1726 31.4009C55.2733 32.7829 54.9713 34.1649 55.4746 35.5468C56.5819 38.5082 61.1118 37.1263 63.3264 37.3237C67.2523 37.6198 66.0444 42.7529 66.145 45.2207C66.145 46.504 67.353 48.6757 66.3464 49.6628C65.7424 50.3538 64.3331 50.3538 63.5278 50.4525C62.7224 50.5512 61.3131 50.7487 60.7092 49.959C59.7025 48.577 60.8098 46.2079 60.6085 44.5297C60.4072 43.5426 56.3806 44.431 56.5819 45.5169C56.8839 48.1821 55.1726 51.6371 58.9979 52.1307C61.5145 52.4268 64.2324 51.9332 66.6483 51.2422C67.8563 50.8474 68.9636 50.2551 69.9703 49.4654C70.9769 48.577 70.6749 47.0963 70.3729 45.9117C69.6683 42.9503 71.0776 39.5941 69.1649 37.0275Z" fill="white"/>
<path d="M86.7812 36.83C86.6805 33.0789 86.0765 29.3278 86.0765 25.5767C86.0765 23.6024 82.05 24.2934 82.05 25.8729C82.05 29.4265 82.5533 32.9802 82.7546 36.6326C82.7546 36.7313 82.7546 36.7313 82.7546 36.83C80.7413 36.83 78.8287 37.0274 76.8154 37.0274C77.0168 32.3879 76.2114 27.8471 76.4128 23.2076C76.4128 22.6153 72.4869 23.1089 72.3862 24.2934C72.1849 28.7355 72.9902 33.1776 72.8895 37.6197C72.7889 39.7914 72.6882 41.8644 72.5875 44.0361C72.5875 45.1219 72.7889 46.2078 72.8895 47.2936C72.9902 48.2808 73.3928 49.6627 73.0909 50.5512C72.8895 51.3409 76.7148 50.8473 77.0168 49.8602C77.5201 48.0833 76.8154 45.8129 76.6141 44.0361C76.4128 42.358 76.6141 40.5811 76.7148 38.8043C78.728 38.7056 80.842 38.5081 82.8553 38.8043C82.9559 40.1863 83.0566 41.5683 83.1573 42.9502C83.2579 44.1348 83.3586 45.2206 83.3586 46.4052C83.3586 47.3923 83.4593 48.873 83.1573 49.8602C82.352 51.9331 86.3785 51.7357 86.9825 50.255C87.6871 48.3795 87.4858 46.1091 87.3852 44.1348C87.1838 41.7657 86.7812 39.2979 86.7812 36.83Z" fill="white"/>
<path d="M103.894 41.3711C102.988 38.6071 101.478 36.238 100.27 33.5728C101.277 31.5985 102.283 29.7229 103.29 27.7487C104.095 25.9718 104.8 23.8989 106.411 22.7143C107.015 22.2207 107.015 21.8259 106.109 21.7272C105.203 21.6285 103.995 21.9246 103.29 22.4182C101.78 23.6027 100.874 24.9847 100.069 26.6628C99.0622 28.7358 98.1562 30.7101 97.0489 32.6843C96.9482 32.783 96.8475 32.9805 96.8475 33.0792C96.3442 33.3753 96.0422 33.8689 96.2436 34.3625C95.4382 35.9419 94.6329 37.4226 93.727 39.002C93.425 33.474 92.7203 27.9461 92.519 22.4182C92.519 21.1349 88.4924 21.9246 88.4924 23.504C88.6938 30.3152 89.7004 37.1264 89.8011 44.0364C89.8011 44.0364 89.8011 44.0364 89.8011 44.1351C89.4991 44.4312 89.5997 44.6286 89.9017 44.7273C89.9017 46.5042 89.8011 48.1823 89.7004 49.9591C89.1971 50.7489 90.2037 51.045 90.8077 51.045H90.9084C91.613 51.045 93.5256 50.6501 93.6263 49.663C93.8276 47.59 93.9283 45.5171 93.8276 43.4441C95.4382 41.7659 96.7469 39.7917 97.9549 37.8174C98.7602 39.2981 99.4648 40.7788 99.9681 42.3582C100.874 45.1222 102.283 47.59 103.189 50.354C103.693 52.1308 107.719 51.045 107.216 49.2682C106.31 46.6029 104.901 44.0364 103.894 41.3711Z" fill="white"/>
<path d="M127.852 36.7316C127.651 35.9419 126.443 35.8431 125.537 35.9419C125.537 35.6457 125.537 35.2509 125.537 34.9547C125.437 32.2895 125.336 29.6242 125.135 26.959C124.933 24.4911 123.524 23.6027 121.108 23.7014C118.692 23.8001 115.773 24.195 113.457 25.0834C110.84 26.0705 109.33 28.0448 108.827 30.7101C108.223 33.6715 109.028 36.929 109.23 39.8904C109.431 43.3453 109.33 46.899 109.33 50.354C109.33 50.9463 113.357 50.354 113.357 49.2681C113.357 46.5042 113.357 43.7402 113.357 40.9762C113.357 40.1865 113.256 39.3968 113.256 38.5084C114.665 37.9161 116.981 38.5084 118.39 38.6071C119.497 38.7058 120.605 38.4097 121.712 38.311C121.712 40.5814 121.813 42.9505 121.913 45.2209C121.913 46.4055 122.417 48.7746 121.511 49.7617C121.108 50.2553 123.021 50.0578 123.121 50.0578C123.927 49.9591 124.933 49.663 125.437 48.972C126.443 47.8862 125.94 45.2209 125.839 43.8389C125.738 41.9634 125.738 39.9891 125.738 38.1135C126.745 38.311 128.054 37.5213 127.852 36.7316ZM112.954 36.5341C112.853 35.2509 112.753 34.0663 112.652 32.783C112.451 30.4139 112.753 27.2551 114.967 25.7744C115.571 25.3795 116.679 25.4783 117.383 25.3795C118.39 25.1821 119.397 24.9847 120.303 25.577C121.511 26.3667 121.209 29.2294 121.209 30.4139C121.209 32.3882 121.41 34.3624 121.511 36.4354C120.907 36.5341 120.403 36.5341 119.799 36.5341C117.484 36.4354 115.169 36.1393 112.954 36.5341Z" fill="white"/>
<path d="M49.1328 24.9843C49.6361 24.8856 50.2401 24.7869 50.6427 24.4908C50.7434 24.3921 50.8441 24.3921 50.9447 24.2933C51.4481 23.9972 51.9514 23.5036 51.6494 22.9114C51.1461 21.8255 51.2467 20.641 51.2467 19.5551C51.2467 18.568 50.2401 18.2718 49.4348 18.3705C48.7301 18.4693 47.2202 18.9628 47.2202 19.8512C47.2202 20.8384 47.1195 21.8255 47.3208 22.8126C47.3208 22.9114 47.2202 23.0101 47.2202 23.2075C47.1195 23.4049 47.2202 23.6023 47.3208 23.7998V23.8985C47.3208 23.9972 47.3208 24.0959 47.3208 24.1946C47.4215 24.3921 47.5222 24.5895 47.7235 24.6882C48.1261 24.9843 48.6295 24.9843 49.1328 24.9843Z" fill="white"/>
</symbol><symbol id="mishka-logo-mobile" viewBox="0 0 86 35">
<path d="M4.54732 26.3186C4.54732 22.8186 4.24733 19.4186 4.14733 15.9186C4.14733 15.6186 4.14733 15.2186 4.14733 14.9186C4.14733 15.0186 4.24732 15.1186 4.24732 15.3186C4.74732 16.7186 5.34732 18.0186 6.04732 19.2186C6.74732 20.4186 7.14732 21.8186 7.54732 23.1186C7.34732 23.3186 7.24733 23.5186 7.34733 23.7186C7.34733 23.9186 7.44732 23.9186 7.54732 24.0186C8.04732 24.5186 9.04733 24.2186 9.64733 24.0186C9.84733 23.9186 10.1473 23.8186 10.3473 23.6186C10.6473 23.4186 11.0473 23.0186 10.9473 22.6186C10.9473 22.5186 10.9473 22.4186 10.8473 22.4186C11.2473 21.3186 11.4473 20.2186 11.6473 19.1186C11.8473 17.9186 12.3473 16.8186 12.7473 15.6186C12.7473 16.1186 12.8473 16.6186 12.8473 17.2186C13.0473 19.3186 12.8473 21.5186 12.8473 23.6186C12.8473 24.3186 12.8473 25.0186 13.0473 25.7186C13.1473 26.0186 13.3473 27.2186 13.2473 27.3186C12.7473 27.8186 12.8473 28.4186 13.5473 28.5186C14.3473 28.7186 15.3473 28.4186 15.8473 27.9186C16.8473 27.0186 16.3473 25.5186 16.1473 24.3186C15.7473 22.3186 16.2473 20.1186 16.1473 18.1186C16.0473 15.8186 15.7473 13.6186 15.7473 11.3186C15.7473 9.51856 16.0473 7.61856 15.4473 5.81856C15.4473 5.61856 15.5473 5.41856 15.5473 5.21856C15.7473 4.31856 12.7473 4.81856 12.3473 5.61856C12.0473 5.81856 11.9473 6.11856 12.0473 6.41856C12.0473 6.51856 12.1473 6.51856 12.1473 6.61856C11.5473 9.31856 10.8473 11.9186 9.94733 14.5186C9.64733 15.5186 9.24733 16.5186 8.84733 17.5186C8.34733 16.6186 7.84733 15.6186 7.44733 14.7186C6.24733 11.8186 5.24733 8.91856 3.84733 6.11856C4.04733 4.81856 1.14732 4.91856 0.547324 6.11856C-0.152676 7.51856 -0.0526737 9.01856 0.147326 10.5186C0.447326 12.2186 0.447326 13.9186 0.447326 15.6186C0.447326 18.9186 0.747327 22.3186 0.847327 25.6186C0.547327 25.9186 0.447325 26.3186 0.747325 26.8186C0.847325 27.0186 1.04732 27.1186 1.24732 27.3186C2.44732 28.0186 4.54732 27.5186 4.54732 26.3186Z" fill="black"/>
<path d="M22.7473 7.91856C22.6473 7.31856 19.3473 8.01856 19.4473 8.81856C19.7473 10.6186 19.6473 12.4186 19.5473 14.2186C19.5473 15.9186 19.9473 17.5186 20.1473 19.2186C20.3473 20.9186 20.0473 22.7186 20.2473 24.4186C20.3473 25.2186 20.8473 26.7186 20.3473 27.4186C19.9473 27.8186 21.5473 27.7186 21.6473 27.7186C22.2473 27.6186 23.1473 27.4186 23.5473 26.8186C24.1473 26.1186 23.7473 24.8186 23.5473 24.0186C23.2473 22.3186 23.4473 20.5186 23.3473 18.7186C23.2473 17.0186 22.7473 15.4186 22.6473 13.8186C22.9473 11.8186 23.0473 9.91856 22.7473 7.91856Z" fill="black"/>
<path d="M25.9473 14.6186C26.8473 17.1186 30.5473 15.9186 32.5473 16.1186C35.7473 16.3186 34.8473 20.7186 34.8473 22.7186C34.8473 23.8186 35.8473 25.6186 35.0473 26.5186C34.5473 27.1186 33.3473 27.1186 32.6473 27.1186C31.9473 27.2186 30.7473 27.4186 30.3473 26.7186C29.5473 25.5186 30.4473 23.5186 30.2473 22.1186C30.1473 21.3186 26.8473 22.0186 26.9473 23.0186C27.2473 25.2186 25.7473 28.2186 28.9473 28.6186C31.0473 28.8186 33.3473 28.5186 35.2473 27.8186C36.2473 27.5186 37.1473 27.0186 37.9473 26.3186C38.8473 25.5186 38.5473 24.3186 38.3473 23.3186C37.7473 20.8186 38.9473 18.0186 37.3473 15.8186C35.6473 13.5186 32.3473 15.1186 30.1473 14.5186C28.9473 14.3186 28.9473 12.7186 28.9473 11.7186C28.9473 10.5186 28.8473 9.41856 28.7473 8.21856C28.6473 7.31856 28.7473 6.41856 29.3473 5.81856C29.4473 5.71856 30.0473 5.51856 30.0473 5.51856C30.3473 5.41856 30.6473 5.41856 30.9473 5.41856C32.2473 5.31856 34.8473 5.61856 34.3473 7.51856C34.1473 8.41856 37.3473 7.91856 37.6473 7.01856C38.6473 3.11856 31.5473 3.91856 29.4473 4.41856C27.5473 4.91856 25.5473 6.01856 25.4473 8.11856C25.3473 9.11856 25.6473 10.1186 25.7473 11.1186C25.7473 12.3186 25.4473 13.5186 25.9473 14.6186Z" fill="black"/>
<path d="M40.3473 16.5186C40.2473 18.3186 40.1473 20.1186 40.1473 21.9186C40.1473 22.8186 40.2473 23.7186 40.4473 24.7186C40.5473 25.5186 40.8473 26.7186 40.6473 27.5186C40.4473 28.1186 43.6473 27.7186 43.9473 26.9186C44.4473 25.4186 43.7473 23.5186 43.6473 22.0186C43.5473 20.5186 43.6473 19.1186 43.7473 17.6186C45.4473 17.5186 47.1473 17.4186 48.8473 17.6186C48.9473 18.8186 49.0473 19.9186 49.1473 21.1186C49.2473 22.1186 49.3473 23.0186 49.3473 24.0186C49.3473 24.9186 49.4473 26.1186 49.1473 26.9186C48.4473 28.6186 51.8473 28.5186 52.2473 27.2186C52.8473 25.6186 52.6473 23.7186 52.5473 22.0186C52.2473 19.8186 51.9473 17.8186 51.9473 15.7186C51.8473 12.5186 51.3473 9.41856 51.3473 6.21856C51.3473 4.51856 48.0473 5.11856 48.0473 6.51856C48.0473 9.51856 48.4473 12.5186 48.6473 15.6186C48.6473 15.7186 48.6473 15.7186 48.6473 15.8186C47.0473 15.8186 45.3473 15.9186 43.7473 16.0186C43.9473 12.1186 43.2473 8.21856 43.3473 4.31856C43.3473 3.81856 40.0473 4.21856 40.0473 5.21856C39.8473 9.01856 40.4473 12.7186 40.3473 16.5186Z" fill="black"/>
<path d="M54.4473 21.8186C54.1473 22.1186 54.2473 22.2186 54.4473 22.3186C54.4473 23.8186 54.4473 25.2186 54.2473 26.7186C53.8473 27.3186 54.6473 27.7186 55.1473 27.7186H55.2473C55.8473 27.7186 57.4473 27.4186 57.5473 26.6186C57.7473 24.8186 57.7473 23.1186 57.7473 21.3186C59.0473 19.9186 60.1473 18.2186 61.1473 16.6186C61.7473 17.8186 62.3473 19.1186 62.8473 20.5186C63.5473 22.8186 64.7473 24.9186 65.4473 27.3186C65.9473 28.8186 69.2473 27.9186 68.7473 26.4186C68.0473 24.1186 66.8473 21.9186 66.1473 19.6186C65.3473 17.3186 64.1473 15.2186 63.1473 13.0186C63.9473 11.4186 64.8473 9.71856 65.6473 8.01856C66.3473 6.51856 66.8473 4.81856 68.2473 3.71856C68.7473 3.31856 68.7473 2.91856 68.0473 2.91856C67.3473 2.81856 66.3473 3.11856 65.7473 3.51856C64.4473 4.51856 63.7473 5.71856 63.0473 7.11856C62.2473 8.81856 61.4473 10.5186 60.5473 12.2186C60.4473 12.3186 60.4473 12.4186 60.3473 12.6186C59.9473 12.9186 59.6473 13.2186 59.8473 13.7186C59.1473 15.0186 58.5473 16.3186 57.7473 17.6186C57.4473 12.9186 56.9473 8.31856 56.7473 3.61856C56.7473 2.51856 53.4473 3.21856 53.4473 4.51856C53.6473 10.2186 54.4473 16.0186 54.4473 21.8186Z" fill="black"/>
<path d="M85.9473 15.6186C85.7473 14.9186 84.7473 14.9186 84.0473 15.0186C84.0473 14.7186 84.0473 14.4186 84.0473 14.2186C83.9473 12.0186 83.9473 9.71856 83.7473 7.41856C83.5473 5.31856 82.4473 4.61856 80.4473 4.71856C78.4473 4.81856 76.0473 5.11856 74.1473 5.91856C71.9473 6.81856 70.7473 8.41856 70.3473 10.7186C69.8473 13.2186 70.5473 15.9186 70.6473 18.5186C70.7473 21.5186 70.7473 24.4186 70.7473 27.4186C70.7473 27.9186 74.0473 27.4186 74.0473 26.5186C74.0473 24.2186 74.0473 21.8186 74.0473 19.5186C74.0473 18.8186 74.0473 18.1186 73.9473 17.4186C75.1473 16.9186 77.0473 17.4186 78.2473 17.5186C79.1473 17.6186 80.0473 17.4186 80.9473 17.3186C80.9473 19.2186 81.0473 21.2186 81.1473 23.2186C81.1473 24.2186 81.5473 26.2186 80.8473 27.0186C80.4473 27.4186 82.0473 27.3186 82.1473 27.3186C82.8473 27.2186 83.6473 27.0186 84.0473 26.4186C84.8473 25.5186 84.4473 23.2186 84.3473 22.1186C84.2473 20.5186 84.2473 18.9186 84.2473 17.3186C85.0473 16.9186 86.1473 16.3186 85.9473 15.6186ZM79.3473 15.4186C77.4473 15.4186 75.5473 15.1186 73.6473 15.4186C73.5473 14.3186 73.4473 13.3186 73.3473 12.2186C73.2473 10.2186 73.4473 7.51856 75.2473 6.31856C75.7473 6.01856 76.6473 6.01856 77.2473 5.91856C78.0473 5.81856 78.8473 5.61856 79.6473 6.11856C80.6473 6.81856 80.4473 9.21856 80.4473 10.2186C80.4473 11.9186 80.6473 13.6186 80.7473 15.3186C80.2473 15.4186 79.7473 15.4186 79.3473 15.4186Z" fill="black"/>
<path d="M19.1473 4.11856C19.1473 4.31856 19.1473 4.51856 19.2473 4.61856V4.71856C19.2473 4.81856 19.2473 4.91856 19.2473 5.01856C19.3473 5.21856 19.4473 5.31856 19.6473 5.41856C19.9473 5.61856 20.3473 5.61856 20.7473 5.61856C21.1473 5.61856 21.6473 5.41856 21.9473 5.21856C22.0473 5.11856 22.0473 5.11856 22.1473 5.01856C22.5473 4.71856 22.9473 4.31856 22.7473 3.91856C22.3473 3.01856 22.3473 2.01856 22.4473 1.01856C22.4473 0.218559 21.6473 -0.0814409 20.9473 0.0185591C20.3473 0.118559 19.1473 0.518558 19.1473 1.31856C19.1473 2.11856 19.0473 3.01856 19.2473 3.81856C19.1473 3.91856 19.1473 4.01856 19.1473 4.11856Z" fill="black"/>
<path d="M80.6473 33.3186C79.0473 32.7186 77.3473 32.7186 75.7473 32.5186C74.1473 32.3186 72.5473 32.1186 70.8473 31.9186C69.2473 32.0186 67.5473 31.9186 65.8473 32.0186L60.9473 32.3186C54.4473 32.6186 47.9473 32.6186 41.4473 32.4186C34.9473 32.3186 28.4473 31.9186 21.8473 31.9186C18.5473 31.9186 15.2473 32.0186 11.9473 32.2186C10.3473 32.5186 8.74733 32.7186 7.04733 33.1186C5.44733 33.5186 3.94733 34.0186 2.24733 34.1186C3.84733 34.5186 5.54733 34.4186 7.24733 34.4186C8.84733 34.4186 10.4473 34.5186 12.1473 34.6186C15.3473 34.4186 18.6473 34.4186 21.8473 34.3186C28.3473 34.3186 34.8473 34.6186 41.4473 34.8186C47.9473 34.9186 54.5473 35.0186 61.1473 34.7186L66.0473 34.4186C67.6473 34.3186 69.2473 34.3186 70.8473 34.3186C72.4473 34.2186 74.1473 34.0186 75.7473 33.8186C77.4473 33.6186 78.9473 33.2186 80.6473 33.3186H80.7473V33.2186C80.7473 33.0186 80.7473 32.9186 80.7473 32.7186C80.7473 33.1186 80.7473 33.2186 80.6473 33.3186Z" fill="black"/>
</symbol><symbol id="mishka-logo-tablet" viewBox="0 0 114 46">
<path d="M110.889 41.8087C115.312 42.7068 111.693 5.98661 110.989 3.59182C108.979 -2.99387 84.1469 1.49637 78.6176 1.8955C65.8498 2.89333 53.283 0.897673 40.8169 1.49637C34.5838 1.79572 5.73056 -0.299724 3.11668 3.49203C-1.91001 10.6764 0.402269 29.2361 1.80974 38.5159C-2.21161 39.3142 4.12202 42.7068 4.92629 43.4053C11.2599 45.6005 21.4138 43.2057 28.0491 43.8044C43.5313 45.3011 60.0188 41.6092 75.6015 42.8066C80.1256 43.9042 85.2528 43.8044 89.8773 44.004C93.396 49.5918 109.682 41.6092 110.889 41.8087C110.788 41.8087 111.392 41.9085 110.889 41.8087Z" fill="black"/>
<path d="M26.2395 24.3475C26.139 21.853 25.7368 19.2586 25.7368 16.764C25.7368 14.6686 26.139 12.5731 25.4352 10.5775C25.4352 10.3779 25.5358 10.1783 25.5358 9.879C25.7368 8.88117 22.4192 9.38008 21.9165 10.2781C21.6149 10.5775 21.4139 10.8768 21.5144 11.1762C21.5144 11.276 21.6149 11.3757 21.6149 11.3757C21.0117 14.3692 20.1069 17.3627 19.1016 20.2564C18.6995 21.3541 18.2973 22.4517 17.8952 23.6491C17.292 22.6512 16.7893 21.5536 16.2866 20.456C14.9797 17.1632 13.7733 13.8703 12.1648 10.777C12.3658 9.2803 9.14875 9.47986 8.44501 10.777C7.64074 12.3736 7.74127 13.9701 8.04287 15.6664C8.34448 17.5623 8.34447 19.4582 8.44501 21.4538C8.44501 25.2456 8.74661 28.9376 8.84714 32.7293C8.54554 33.1285 8.44501 33.5276 8.74661 34.0265C8.94768 34.2261 9.04821 34.4256 9.24928 34.5254C10.1541 35.2239 12.5669 34.6252 12.5669 33.328C12.5669 29.4365 12.2653 25.5449 12.1648 21.6534C12.1648 21.2543 12.1648 20.8551 12.1648 20.5558C12.2653 20.6556 12.2653 20.8551 12.3658 20.9549C12.969 22.4517 13.5722 23.9484 14.477 25.3454C15.2813 26.7423 15.6834 28.2391 16.1861 29.7358C15.985 29.9354 15.8845 30.135 15.985 30.4343C15.985 30.6339 16.0856 30.7337 16.1861 30.7337C16.7893 31.2326 17.8952 31.033 18.5989 30.7337C18.9005 30.6339 19.1016 30.5341 19.4032 30.3345C19.7048 30.135 20.2075 29.7358 20.1069 29.2369C20.1069 29.1371 20.0064 29.0373 20.0064 28.9376C20.4085 27.7402 20.7101 26.443 20.9112 25.2456C21.2128 23.8486 21.6149 22.6512 22.1176 21.3541C22.1176 21.9528 22.2181 22.5514 22.2181 23.1501C22.4192 25.5449 22.2181 27.9397 22.2181 30.3345C22.2181 31.1328 22.3187 31.8313 22.4192 32.6295C22.5197 32.9289 22.7208 34.3259 22.7208 34.4256C22.1176 34.9246 22.3187 35.623 23.1229 35.8226C24.0277 36.0222 25.1336 35.7228 25.7368 35.1241C26.8427 34.1263 26.34 32.43 26.0384 31.1328C25.7368 29.1371 26.34 26.6426 26.2395 24.3475Z" fill="white"/>
<path d="M34.1817 25.046C34.0811 23.1501 33.4779 21.3541 33.4779 19.4582C33.4779 17.2629 33.679 15.0677 33.3774 12.9723C33.2769 12.2738 29.5571 13.0721 29.6576 13.9701C29.9592 15.9658 29.8587 17.9614 29.8587 19.9571C29.8587 21.853 30.2608 23.6491 30.5624 25.5449C30.864 27.5406 30.4619 29.4365 30.663 31.4321C30.7635 32.3302 31.3667 34.0265 30.7635 34.8248C30.3614 35.3237 32.171 35.1241 32.2715 35.1241C32.9753 35.0243 33.9806 34.725 34.4833 34.1263C35.0865 33.328 34.6843 31.8313 34.5838 30.9332C34.0811 29.0373 34.2822 26.9419 34.1817 25.046Z" fill="white"/>
<path d="M49.7644 21.853C47.7537 19.2586 44.1345 21.1545 41.6212 20.3562C40.3142 19.9571 40.3142 18.161 40.3142 17.1632C40.3142 15.7662 40.2137 14.5688 40.0126 13.2716C39.9121 12.2738 40.0126 11.276 40.7164 10.4777C40.8169 10.3779 41.5206 10.1783 41.5206 10.1783C41.8222 10.0786 42.1238 10.0786 42.526 10.0786C44.034 9.97878 46.9494 10.2781 46.3462 12.4734C46.0446 13.4712 49.7644 12.8725 50.066 11.8747C51.2724 7.4842 43.1292 8.38225 40.8169 8.98095C38.7057 9.57965 36.3934 10.777 36.2929 13.1718C36.1923 14.3692 36.5945 15.4669 36.5945 16.5645C36.695 17.8616 36.3934 19.1588 36.8961 20.456C37.9014 23.2499 42.1238 21.9528 44.3356 22.1523C47.9548 22.4517 46.9495 27.341 46.9495 29.636C46.9495 30.8334 48.0553 32.9289 47.1505 33.9267C46.5473 34.5254 45.2404 34.6252 44.5366 34.6252C43.7324 34.725 42.4254 34.9246 41.9228 34.2261C41.018 32.9289 42.0233 30.6339 41.8222 29.1371C41.7217 28.2391 37.9014 29.0373 38.1025 30.135C38.4041 32.6295 36.7955 35.9224 40.4148 36.4213C42.727 36.7206 45.3409 36.2217 47.5527 35.5232C48.6585 35.1241 49.7644 34.6252 50.6692 33.8269C51.6745 32.9289 51.3729 31.6317 51.0713 30.4343C50.2671 27.4408 51.574 24.2478 49.7644 21.853Z" fill="white"/>
<path d="M66.3525 21.6534C66.252 18.0612 65.6488 14.5688 65.6488 10.9766C65.6488 9.08073 61.8285 9.77921 61.8285 11.276C61.8285 14.6686 62.3311 18.0612 62.4317 21.4538C62.4317 21.5536 62.4317 21.5536 62.4317 21.6534C60.6221 21.6534 58.7119 21.853 56.8018 21.853C57.0028 17.4625 56.1986 13.0721 56.3996 8.78138C56.3996 8.18268 52.6799 8.6816 52.6799 9.77921C52.4788 13.9701 53.2831 18.2608 53.082 22.4517C52.9815 24.4473 52.881 26.443 52.881 28.5384C52.881 29.5363 53.082 30.6339 53.1826 31.6317C53.2831 32.5298 53.6852 33.8269 53.3836 34.725C53.1826 35.4235 56.8018 35.0243 57.1034 34.0265C57.606 32.3302 56.9023 30.2347 56.7012 28.5384C56.5002 26.9419 56.7012 25.2456 56.8018 23.5493C58.7119 23.4495 60.7226 23.2499 62.6327 23.5493C62.7333 24.8465 62.8338 26.1436 62.9343 27.4408C63.0349 28.5384 63.1354 29.636 63.1354 30.7337C63.1354 31.7315 63.2359 33.1285 62.9343 34.0265C62.2306 36.0222 65.9503 35.8226 66.453 34.3259C67.1568 32.5298 66.9557 30.3345 66.8552 28.5384C66.7546 26.3432 66.3525 23.9484 66.3525 21.6534Z" fill="white"/>
<path d="M82.4378 25.9441C81.533 23.3497 80.1256 21.0547 79.0197 18.5601C80.025 16.6642 80.9298 14.8682 81.8346 12.9723C82.6389 11.276 83.2421 9.38008 84.7501 8.18269C85.2528 7.78355 85.2528 7.38442 84.5491 7.28464C83.7448 7.18485 82.5384 7.4842 81.9352 7.98312C80.5277 9.08073 79.6229 10.3779 78.9192 12.0742C78.0144 13.9701 77.1096 15.9658 76.1042 17.8616C76.0037 17.9614 76.0037 18.161 75.9032 18.2608C75.4005 18.5601 75.1994 18.9593 75.3 19.4582C74.4957 20.9549 73.7919 22.4517 72.8871 23.8486C72.5855 18.5601 71.9823 13.3714 71.7813 8.0829C71.7813 6.88551 67.961 7.58399 68.0615 9.08073C68.2626 15.5666 69.2679 22.0525 69.2679 28.5384C68.9663 28.8378 69.0669 29.0374 69.3685 29.1371C69.3685 30.8334 69.2679 32.43 69.1674 34.1263C68.7653 34.8248 69.5695 35.2239 70.1727 35.2239H70.2733C70.977 35.2239 72.7866 34.9246 72.8871 33.9267C73.0882 31.9311 73.0882 29.9354 73.0882 27.9397C74.5962 26.3432 75.8026 24.5471 76.9085 22.6512C77.6122 24.0482 78.316 25.4452 78.8186 26.9419C79.6229 29.5363 81.0304 31.9311 81.8346 34.5254C82.3373 36.2217 86.0571 35.2239 85.5544 33.5276C84.6496 30.9332 83.3427 28.5384 82.4378 25.9441Z" fill="white"/>
<path d="M104.857 21.5536C104.656 20.7554 103.55 20.7554 102.645 20.8551C102.645 20.5558 102.645 20.2564 102.645 19.8573C102.545 17.3627 102.444 14.7684 102.243 12.2738C102.042 9.97878 100.735 9.08073 98.4228 9.18052C96.1105 9.2803 93.3961 9.67943 91.2849 10.4777C88.7716 11.4755 87.3641 13.2716 86.962 15.866C86.4593 18.7597 87.163 21.7532 87.3641 24.6469C87.4646 27.9397 87.4646 31.3324 87.4646 34.6252C87.4646 35.1241 91.1844 34.6252 91.1844 33.6274C91.1844 31.033 91.1844 28.3389 91.1844 25.7445C91.1844 24.9462 91.1844 24.2478 91.0839 23.4495C92.3908 22.8508 94.6025 23.4495 95.9095 23.5493C97.0153 23.6491 98.0207 23.3497 99.026 23.2499C99.026 25.4452 99.1266 27.6404 99.2271 29.8356C99.2271 30.9332 99.7298 33.2282 98.9255 34.1263C98.5234 34.6252 100.333 34.4256 100.433 34.4256C101.238 34.3259 102.143 34.0265 102.645 33.4278C103.55 32.3302 103.047 29.8356 103.047 28.5384C102.947 26.7423 102.947 24.9462 102.947 23.1501C103.852 23.0504 105.058 22.3519 104.857 21.5536ZM90.9833 21.3541C90.8828 20.1567 90.7823 18.9593 90.6817 17.7619C90.4807 15.5666 90.7823 12.4734 92.8935 11.1762C93.4967 10.777 94.502 10.8768 95.1052 10.777C96.01 10.5775 97.0153 10.3779 97.8196 10.9766C98.9255 11.7749 98.7244 14.469 98.7244 15.5666C98.7244 17.4625 98.9255 19.3584 99.026 21.2543C98.5234 21.3541 97.9202 21.3541 97.4175 21.3541C95.2057 21.2543 92.994 20.9549 90.9833 21.3541Z" fill="white"/>
<path d="M30.9646 10.3779C31.4673 10.3779 31.9699 10.1783 32.3721 9.879C32.4726 9.77921 32.5731 9.77922 32.5731 9.67943C33.0758 9.38008 33.4779 8.88117 33.2769 8.38225C32.7742 7.38442 32.8747 6.28681 32.8747 5.18919C32.8747 4.29115 31.9699 3.9918 31.1657 4.09158C30.4619 4.19136 29.0545 4.69028 29.0545 5.48854C29.0545 6.38659 28.9539 7.38442 29.155 8.28247C29.155 8.38225 29.0545 8.48204 29.0545 8.58182C28.9539 8.78138 29.0545 8.98095 29.155 9.18052V9.2803C29.155 9.38008 29.155 9.47987 29.155 9.57965C29.2555 9.77922 29.3561 9.97878 29.5571 10.0786C30.0598 10.3779 30.5625 10.3779 30.9646 10.3779Z" fill="white"/>
</symbol><symbol id="phone" viewBox="0 0 25 24">
<g opacity="0.2">
<path d="M17.4395 24C17.0363 24 16.7339 24 16.3306 24C11.3911 23.4074 7.7621 21.1358 5.14113 18.2717C2.52016 15.4075 0.403226 11.7532 0 6.7162C0 6.22237 0 5.82731 0 5.33349C0.100806 4.44461 0.504032 3.85202 1.10887 3.25943C1.71371 2.56808 2.72177 1.77796 3.62903 1.6792C4.33468 1.6792 5.44355 2.17302 5.84677 2.76561C6.25 3.25943 6.45161 4.34584 6.65323 5.13596C6.85484 6.02484 7.25806 7.11125 7.15726 7.90137C6.95565 9.08655 5.34274 9.58037 4.93952 10.4693C6.55242 14.1235 9.07258 16.889 12.5 18.6667C13.3065 18.1729 14.1129 16.7902 15.3226 16.7902C15.7258 16.7902 16.3306 16.9877 16.7339 17.0865C17.2379 17.1852 17.6411 17.3828 18.0444 17.5803C18.75 17.8766 20.0605 18.1729 20.4637 18.7655C20.8669 19.3581 21.1694 20.3457 21.0685 20.9383C20.7661 22.2222 18.6492 23.6049 17.4395 24Z" fill="black"/>
<path d="M12.6008 1.48147C18.5484 1.48147 23.4879 6.22217 23.4879 12.1481H25C25 5.43205 19.4557 0 12.6008 0V1.48147Z" fill="black"/>
<path d="M12.6008 9.18506V10.7653C13.4073 10.7653 14.0121 11.3579 14.0121 12.148H15.625C15.625 10.5678 14.3145 9.18506 12.6008 9.18506Z" fill="black"/>
<path d="M12.6008 6.12356C15.9274 6.12356 18.75 8.79021 18.75 12.1482H20.3629C20.3629 8.00009 16.9355 4.64209 12.7016 4.64209V6.12356H12.6008Z" fill="black"/>
</g>
</symbol><symbol id="play" viewBox="0 0 101 77">
<path d="M97.2852 18.1472C97.2852 18.1472 96.3817 11.1289 93.4701 8.02085C89.8558 4.01044 85.7395 3.91016 83.9324 3.70964C70.5795 2.70703 50.5 2.70703 50.5 2.70703H50.3996C50.3996 2.70703 30.32 2.70703 16.9671 3.70964C15.0596 3.91016 11.0437 4.01044 7.42938 8.02085C4.61824 11.1289 3.61427 18.1472 3.61427 18.1472C3.61427 18.1472 2.71069 26.3685 2.71069 34.5899V42.3099C2.71069 50.5313 3.61427 58.7526 3.61427 58.7526C3.61427 58.7526 4.51785 65.7708 7.42938 68.8789C11.0437 72.8893 15.8628 72.7891 17.9711 73.1901C25.6013 73.9922 50.5 74.1927 50.5 74.1927C50.5 74.1927 70.5795 74.1927 83.9324 73.1901C85.8399 72.9896 89.8558 72.8893 93.4701 68.8789C96.2813 65.7708 97.2852 58.7526 97.2852 58.7526C97.2852 58.7526 98.1888 50.5313 98.1888 42.3099V34.5899C98.1888 26.3685 97.2852 18.1472 97.2852 18.1472Z" fill="#63D1BB"/>
<path d="M50.3996 77C49.3956 77 25.3002 76.6992 17.67 75.9974H17.5696H17.4692C17.168 75.8971 16.7664 75.8972 16.3648 75.7969C13.8549 75.4961 9.13618 74.8946 5.52187 70.7839C2.10835 67.1745 1.10437 59.9557 1.00398 59.1537C1.00398 58.8529 0 50.6315 0 42.4102V34.6901C0 26.3685 0.903588 18.2474 0.903588 17.9466V17.8463C1.00399 17.0443 2.10836 9.92577 5.42148 6.21613C9.43738 1.80467 13.9553 1.30339 16.164 1.10287C16.3648 1.10287 16.5656 1.10286 16.666 1.0026H16.7664C30.1193 0 50.1988 0 50.3996 0H50.5C50.7008 0 70.7803 0 84.1332 1.0026H84.2336C84.4344 1.0026 84.5348 1.00261 84.7356 1.10287C86.9443 1.30339 91.4622 1.80467 95.4781 6.21613C98.8917 9.8255 99.8956 17.0443 99.996 17.8463C99.996 18.1471 101 26.3685 101 34.6901V42.4102C101 50.7318 100.096 58.8529 99.996 59.1537V59.2539C99.8956 60.056 98.7913 67.2747 95.4781 70.8841C91.4622 75.2956 86.9443 75.7969 84.7356 75.9974C84.5348 75.9974 84.334 75.9974 84.2336 76.0977H84.1332C70.7803 77 50.6004 77 50.3996 77ZM18.3728 70.5833C25.9026 71.2852 49.6968 71.5859 50.5 71.5859C51.2028 71.5859 70.6799 71.5859 83.6312 70.5833C83.832 70.5833 84.0328 70.5833 84.2336 70.4831C86.0407 70.2826 88.8519 69.9818 91.4622 67.1745C93.2694 65.1693 94.3738 60.2565 94.5746 58.5521C94.675 58.0508 95.4781 50.1302 95.4781 42.4102V34.6901C95.4781 26.8698 94.5746 19.0495 94.4742 18.5482C94.173 16.1419 93.0686 11.7305 91.3618 10.026C88.7515 7.11849 85.9404 6.91795 84.1332 6.71743C83.9324 6.71743 83.7316 6.71746 83.5308 6.6172C70.3787 5.61459 50.6004 5.61459 50.3996 5.61459H50.2992C50.0984 5.61459 30.2197 5.61459 17.168 6.6172C16.9672 6.6172 16.7664 6.61717 16.5656 6.71743C14.7584 6.91795 11.9473 7.21875 9.337 10.026C7.52984 12.0313 6.42546 16.944 6.22466 18.6484C6.12427 19.25 5.32108 27.0703 5.32108 34.7904V42.5104C5.32108 50.2305 6.22466 58.1511 6.22466 58.6524C6.52586 61.0586 7.63024 65.4701 9.337 67.1745C11.6461 69.7813 14.6581 70.1823 16.8668 70.4831C17.4692 70.3828 17.8708 70.4831 18.3728 70.5833Z" fill="white"/>
<path d="M38.4521 20.5535V56.3464L68.3706 38.5001L38.4521 20.5535Z" fill="white"/>
</symbol><symbol id="tick" viewBox="0 0 33 22">
<path d="M32.3704 1.35683L31.0098 0L11.5739 19.2863L1.95311 9.69163L0.59259 11.0485L10.2134 20.6432L11.5739 22L13.0316 20.6432L32.3704 1.35683Z" fill="black"/>
</symbol><symbol id="toy" viewBox="0 0 60 60">
<path opacity="0.5" d="M0 43.9933L27.4 60V36.5436L0 20.4362V43.9933ZM51.3 12.4832V15C51.3 16.8121 47.8 18.3221 43.6 18.3221C39.3 18.3221 35.9 16.8121 35.9 15V10.8725C36.2 12.5839 39.5 13.9933 43.6 13.9933C47.9 13.9933 51.3 12.4832 51.3 10.6711C51.3 8.85907 47.8 7.349 43.6 7.349C43.3 7.349 42.9 7.349 42.6 7.349L37.6 4.42954V7.55034C37.6 9.36242 34.1 10.8725 29.9 10.8725C27.2 10.8725 24.9 10.2685 23.5 9.36242C23.3 9.16108 23.1 8.95973 22.8 8.75839C22.4 8.3557 22.2 7.95302 22.2 7.55034V4.5302L17.4 7.349C17.1 7.349 16.7 7.349 16.3 7.349C12 7.349 8.60001 8.85907 8.60001 10.6711C8.60001 12.4832 12.1 13.9933 16.3 13.9933C20.4 13.9933 23.7 12.5839 24 10.8725V15C24 16.8121 20.5 18.3221 16.3 18.3221C12 18.3221 8.60001 16.8121 8.60001 15V12.5839L2.60001 16.1074L30.1 32.2148L57.5 16.2081L51.3 12.4832ZM37.7 22.7517C37.7 24.5638 34.2 26.0738 30 26.0738C25.7 26.0738 22.3 24.5638 22.3 22.7517V18.6242C22.6 20.3356 25.9 21.745 30 21.745C34.1 21.745 37.4 20.3356 37.7 18.6242V22.7517ZM32.6 36.745V60L60 43.9933V20.7383L32.6 36.745ZM29.9 6.6443C34.2 6.6443 37.6 5.13423 37.6 3.32215C37.6 1.51007 34.1 0 29.9 0C25.6 0 22.2 1.51007 22.2 3.32215C22.2 5.13423 25.6 6.6443 29.9 6.6443Z" fill="#149080"/>
</symbol><symbol id="video" viewBox="0 0 32 22">
<path d="M26 10L32 6V22L26 18V10ZM24 10V18C24 20.2 22.2 22 20 22H4C1.8 22 0 20.2 0 18V10C0 7.8 1.8 6 4 6H14C14 4.9 14.9 4 16 4V2H5C4.4 2 4 1.6 4 1C4 0.4 4.4 0 5 0H17C17.6 0 18 0.4 18 1V4C19.1 4 20 4.9 20 6C22.2 6 24 7.8 24 10ZM12 10H4V18H12V10ZM20 11C20 10.4 19.6 10 19 10H15C14.4 10 14 10.4 14 11C14 11.6 14.4 12 15 12H19C19.6 12 20 11.6 20 11Z" fill="#63D1BB"/>
</symbol><symbol id="wrapping" viewBox="0 0 33 32">
<path d="M3.02752 32H15.6422V18.2716H3.02752V32ZM31.3853 8.69136H24.0183C24.5229 8.39506 25.0275 8.19753 25.4312 7.90123C27.0459 6.81481 27.8532 5.33333 27.8532 3.95062C27.8532 2.76543 27.2477 1.77777 26.4404 1.08641C25.633 0.395053 24.5229 0 23.4128 0C22.2018 0 20.9908 0.395053 20.0826 1.08641C18.5688 2.07406 17.4587 3.55555 16.6514 5.1358C16.6514 5.23456 16.5505 5.33333 16.5505 5.33333C16.2477 4.74073 15.945 4.14814 15.5413 3.55555C14.8349 2.56789 14.0275 1.679 13.0183 1.08641C12.0092 0.493818 10.8991 0 9.68807 0C8.47706 0 7.36697 0.49383 6.45871 1.28395C5.65137 2.07408 5.04587 3.16049 5.04587 4.34567C5.04587 5.03703 5.2477 5.82715 5.65137 6.51851C6.25687 7.4074 7.06422 8.09877 8.27523 8.69136H1.61467C0.706413 8.69136 0 9.38271 0 10.2716V16.0988H15.5413V8.69136H17.4587V16.0988H33V10.2716C33 9.38271 32.2936 8.69136 31.3853 8.69136ZM8.88073 6.41975C8.27522 6.02469 7.87155 5.62962 7.66972 5.33333C7.46788 4.93826 7.36696 4.64197 7.36696 4.34567C7.36696 3.85184 7.56881 3.35802 8.0734 2.86419C8.47707 2.46913 9.08256 2.17284 9.68807 2.17284C10.3945 2.17284 11.1009 2.37036 11.7064 2.86419C12.7156 3.55555 13.7248 4.64196 14.3303 6.02468C14.633 6.71604 14.9358 7.4074 15.1376 8.09876C12.0092 7.80246 9.99082 7.11111 8.88073 6.41975ZM19.4771 4.8395C20.0826 4.04938 20.6881 3.35802 21.3945 2.96296C22.1009 2.46914 22.8073 2.27161 23.4128 2.27161C24.0183 2.27161 24.5229 2.46914 24.9266 2.76543C25.3303 3.06173 25.5321 3.45679 25.5321 3.95062C25.5321 4.44444 25.2294 5.23456 24.0183 6.02468C22.9083 6.8148 20.8899 7.7037 17.8624 8.29629C18.1651 7.1111 18.7706 5.82715 19.4771 4.8395ZM17.4587 32H30.0734V18.2716H17.4587V32Z" fill="#63D1BB"/>
</symbol><symbol id="zigzag-fill-desktop" viewBox="0 0 687 77">
<mask id="mask0" style="mask-type:alpha" maskUnits="userSpaceOnUse" x="0" y="0" width="687" height="77">
<rect width="687" height="77" fill="#F31313"/>
</mask>
<g mask="url(#mask0)">
<path d="M905.804 43C890.152 43 890.152 57 874.609 57C859.065 57 858.957 43 843.413 43C827.87 43 827.761 57 812.217 57C796.565 57 796.565 43 780.913 43C765.261 43 765.261 57 749.717 57C734.065 57 734.065 43 718.522 43C702.87 43 702.87 57 687.326 57C671.783 57 671.348 43 655.804 43C640.152 43 640.152 57 624.609 57C609.065 57 608.848 43 593.304 43C577.652 43 577.652 57 562.109 57C546.456 57 546.456 43 530.804 43C515.152 43 515.152 57 499.609 57C483.956 57 483.957 43 468.413 43C452.87 43 452.652 57 437 57C421.348 57 421.348 43 405.804 43C390.152 43 390.152 57 374.609 57C358.956 57 358.956 43 343.304 43C327.652 43 327.652 57 312.109 57C296.456 57 296.457 43 280.913 43C265.261 43 265.261 57 249.717 57C234.065 57 234.065 43 218.522 43C202.87 43 202.87 57 187.217 57C171.565 57 171.565 43 155.913 43C140.261 43 140.261 57 124.609 57C108.957 57 108.957 43 93.3043 43C77.6522 43 77.6522 57 62 57C46.3478 57 46.3478 43 30.6956 43C15.0435 43 15.0435 57 -0.608704 57C-16.2609 57 -16.2609 43 -31.9131 43C-47.5652 43 -47.5652 57 -63.1087 57C-78.7609 57 -78.7609 43 -94.413 43C-110.065 43 -110.065 57 -125.717 57C-141.37 57 -141.37 43 -157.022 43C-172.674 43 -172.674 57 -188.326 57C-203.978 57 -203.978 43 -219.63 43C-234.848 43 -234.848 57 -250.5 57C-266.152 57 -266.152 43 -281.696 43C-297.239 43 -297.348 57 -313 57V77H937V57C921.348 57 921.348 43 905.804 43Z" fill="white"/>
</g>
</symbol><symbol id="zigzag-fill-desktop2" viewBox="0 0 1092 48">
<mask id="mask0" style="mask-type:alpha" maskUnits="userSpaceOnUse" x="0" y="0" width="1092" height="48">
<rect width="1092" height="48" fill="#EE2121"/>
</mask>
<g mask="url(#mask0)">
<path d="M1092.3 14C1077.9 14 1077.9 28 1063.6 28C1049.3 28 1049.2 14 1034.9 14C1020.6 14 1020.5 28 1006.2 28C991.8 28 991.8 14 977.4 14C963 14 963 28 948.7 28C934.3 28 934.3 14 920 14C905.6 14 905.6 28 891.3 28C877 28 876.6 14 862.3 14C847.9 14 847.9 28 833.6 28C819.3 28 819.1 14 804.8 14C790.4 14 790.4 28 776.1 28C761.7 28 761.7 14 747.3 14C732.9 14 732.9 28 718.6 28C704.2 28 704.2 14 689.9 14C675.6 14 675.4 28 661 28C646.6 28 646.6 14 632.3 14C617.9 14 617.9 28 603.6 28C589.2 28 589.2 14 574.8 14C560.4 14 560.4 28 546.1 28C531.7 28 531.7 14 517.4 14C503 14 503 28 488.7 28C474.3 28 474.3 14 460 14C445.6 14 445.6 28 431.2 28C416.8 28 416.8 14 402.4 14C388 14 388 28 373.6 28C359.2 28 359.2 14 344.8 14C330.4 14 330.4 28 316 28C301.6 28 301.6 14 287.2 14C272.8 14 272.8 28 258.4 28C244 28 244 14 229.6 14C215.2 14 215.2 28 200.9 28C186.5 28 186.5 14 172.1 14C157.7 14 157.7 28 143.3 28C128.9 28 128.9 14 114.5 14C100.1 14 100.1 28 85.7 28C71.3 28 71.3 14 56.9 14C42.9 14 42.9 28 28.5 28C14.1 28 14.1 14 -0.200001 14C-14.5 14 -14.6 28 -29 28V48H1121V28C1106.6 28 1106.6 14 1092.3 14Z" fill="white"/>
</g>
</symbol><symbol id="zigzag-fill-tablet" viewBox="0 0 733 33">
<mask id="mask0" style="mask-type:alpha" maskUnits="userSpaceOnUse" x="0" y="0" width="733" height="33">
<rect width="733" height="33" fill="#EB1919"/>
</mask>
<g mask="url(#mask0)">
<path d="M731.783 9C722.142 9 722.142 18.8824 712.567 18.8824C702.992 18.8824 702.925 9 693.35 9C683.776 9 683.709 18.8824 674.134 18.8824C664.492 18.8824 664.492 9 654.85 9C645.209 9 645.209 18.8824 635.634 18.8824C625.992 18.8824 625.992 9 616.417 9C606.776 9 606.776 18.8824 597.201 18.8824C587.626 18.8824 587.358 9 577.783 9C568.142 9 568.142 18.8824 558.567 18.8824C548.992 18.8824 548.858 9 539.283 9C529.642 9 529.642 18.8824 520.067 18.8824C510.425 18.8824 510.425 9 500.783 9C491.142 9 491.142 18.8824 481.567 18.8824C471.925 18.8824 471.925 9 462.35 9C452.776 9 452.642 18.8824 443 18.8824C433.358 18.8824 433.358 9 423.783 9C414.142 9 414.142 18.8824 404.567 18.8824C394.925 18.8824 394.925 9 385.283 9C375.642 9 375.642 18.8824 366.067 18.8824C356.425 18.8824 356.425 9 346.85 9C337.209 9 337.209 18.8824 327.634 18.8824C317.992 18.8824 317.992 9 308.417 9C298.776 9 298.776 18.8824 289.134 18.8824C279.492 18.8824 279.492 9 269.85 9C260.209 9 260.209 18.8824 250.567 18.8824C240.925 18.8824 240.925 9 231.283 9C221.642 9 221.642 18.8824 212 18.8824C202.358 18.8824 202.358 9 192.717 9C183.075 9 183.075 18.8824 173.433 18.8824C163.791 18.8824 163.791 9 154.15 9C144.508 9 144.508 18.8824 134.933 18.8824C125.291 18.8824 125.291 9 115.65 9C106.008 9 106.008 18.8824 96.3661 18.8824C86.7243 18.8824 86.7243 9 77.0826 9C67.4409 9 67.4409 18.8824 57.7991 18.8824C48.1574 18.8824 48.1574 9 38.5157 9C29.1417 9 29.1417 18.8824 19.5 18.8824C9.85826 18.8824 9.85826 9 0.283477 9C-9.29131 9 -9.35826 18.8824 -19 18.8824V33H751V18.8824C741.358 18.8824 741.358 9 731.783 9Z" fill="white"/>
</g>
</symbol><symbol id="zigzag-line-desktop" viewBox="0 0 1052 23">
<path d="M1052 23C1043.77 23 1039.47 18.4 1035.99 14.7C1032.88 11.4 1030.59 9 1025.75 9C1020.81 9 1018.61 11.4 1015.5 14.7C1012.02 18.4 1007.72 23 999.491 23C991.258 23 986.959 18.4 983.483 14.7C980.372 11.4 978.086 9 973.237 9C968.389 9 966.102 11.4 962.992 14.7C959.515 18.4 955.216 23 946.983 23C938.75 23 934.45 18.4 930.974 14.7C927.864 11.4 925.577 9 920.729 9C915.789 9 913.593 11.4 910.483 14.7C907.007 18.4 902.707 23 894.474 23C886.241 23 881.942 18.4 878.466 14.7C875.355 11.4 873.068 9 868.22 9C863.28 9 861.085 11.4 857.975 14.7C854.133 18.4 849.833 23 841.6 23C833.367 23 829.067 18.4 825.591 14.7C822.481 11.4 820.194 9 815.346 9C810.406 9 808.21 11.4 805.1 14.7C801.624 18.4 797.324 23 789.091 23C780.858 23 776.559 18.4 773.083 14.7C769.972 11.4 767.686 9 762.837 9C757.897 9 755.702 11.4 752.592 14.7C748.932 18.4 744.633 23 736.4 23C728.167 23 723.867 18.4 720.391 14.7C717.281 11.4 714.994 9 710.146 9C705.206 9 703.01 11.4 699.9 14.7C696.424 18.4 692.124 23 683.891 23C675.658 23 671.359 18.4 667.883 14.7C664.772 11.4 662.486 9 657.637 9C652.789 9 650.502 11.4 647.392 14.7C643.824 18.4 639.433 23 631.2 23C622.967 23 618.667 18.4 615.191 14.7C612.081 11.4 609.794 9 604.946 9C600.006 9 597.81 11.4 594.7 14.7C591.224 18.4 586.924 23 578.691 23C570.458 23 566.159 18.4 562.683 14.7C559.573 11.4 557.286 9 552.437 9C547.497 9 545.302 11.4 542.192 14.7C538.715 18.4 534.416 23 526.183 23C517.95 23 513.65 18.4 510.174 14.7C507.064 11.4 504.777 9 499.929 9C495.08 9 492.793 11.4 489.683 14.7C486.207 18.4 481.907 23 473.674 23C465.441 23 461.142 18.4 457.666 14.7C454.555 11.4 452.269 9 447.42 9C442.48 9 440.285 11.4 437.175 14.7C433.698 18.4 429.399 23 421.166 23C412.933 23 408.633 18.4 405.157 14.7C402.047 11.4 399.76 9 394.912 9C389.972 9 387.776 11.4 384.666 14.7C381.19 18.4 376.89 23 368.657 23C360.424 23 356.125 18.4 352.649 14.7C349.538 11.4 347.251 9 342.403 9C337.463 9 335.268 11.4 332.158 14.7C328.681 18.4 324.382 23 316.149 23C307.916 23 303.616 18.4 300.14 14.7C297.03 11.4 294.743 9 289.895 9C285.046 9 282.759 11.4 279.649 14.7C276.173 18.4 271.873 23 263.64 23C255.407 23 251.108 18.4 247.632 14.7C244.521 11.4 242.234 9 237.386 9C232.446 9 230.251 11.4 227.141 14.7C223.664 18.4 219.365 23 211.132 23C202.899 23 198.599 18.4 195.123 14.7C192.013 11.4 189.726 9 184.878 9C179.938 9 177.742 11.4 174.632 14.7C171.156 18.4 166.856 23 158.623 23C150.39 23 146.091 18.4 142.615 14.7C139.504 11.4 137.217 9 132.369 9C127.429 9 125.234 11.4 122.123 14.7C117.824 18.4 113.433 23 105.2 23C96.967 23 92.6675 18.4 89.1913 14.7C86.081 11.4 83.7941 9 78.9457 9C74.0059 9 71.8104 11.4 68.7002 14.7C65.224 18.4 60.9245 23 52.6915 23C44.4584 23 40.159 18.4 36.6828 14.7C33.481 11.4 31.1941 9 26.3457 9C21.4059 9 19.2104 11.4 16.1002 14.7C12.5325 18.4 8.23304 23 0 23V14C4.93983 14 7.1353 11.6 10.2456 8.3C13.7217 4.6 18.0212 0 26.3457 0C34.5788 0 38.8783 4.6 42.3544 8.3C45.4647 11.6 47.7517 14 52.6 14C57.5398 14 59.7353 11.6 62.8456 8.3C66.3217 4.6 70.7127 0 78.9457 0C87.1788 0 91.4783 4.6 94.9544 8.3C98.0647 11.6 100.352 14 105.2 14C110.14 14 112.335 11.6 115.446 8.3C118.922 4.6 123.221 0 131.454 0C139.687 0 143.987 4.6 147.463 8.3C150.573 11.6 152.86 14 157.709 14C162.648 14 164.844 11.6 167.954 8.3C171.43 4.6 175.73 0 183.963 0C192.196 0 196.495 4.6 199.971 8.3C203.082 11.6 205.369 14 210.217 14C215.157 14 217.352 11.6 220.463 8.3C223.939 4.6 228.238 0 236.471 0C244.704 0 249.004 4.6 252.48 8.3C255.59 11.6 257.877 14 262.726 14C267.665 14 269.861 11.6 272.971 8.3C276.447 4.6 280.747 0 288.98 0C297.213 0 301.512 4.6 304.988 8.3C308.099 11.6 310.386 14 315.234 14C320.174 14 322.369 11.6 325.48 8.3C328.956 4.6 333.255 0 341.488 0C349.721 0 354.021 4.6 357.497 8.3C360.607 11.6 362.894 14 367.743 14C372.591 14 374.878 11.6 377.988 8.3C381.464 4.6 385.764 0 393.997 0C402.23 0 406.529 4.6 410.006 8.3C413.116 11.6 415.403 14 420.251 14C425.191 14 427.386 11.6 430.497 8.3C433.973 4.6 438.272 0 446.505 0C454.738 0 459.038 4.6 462.514 8.3C465.624 11.6 467.911 14 472.76 14C477.699 14 479.895 11.6 483.005 8.3C486.481 4.6 490.781 0 499.014 0C507.247 0 511.546 4.6 515.023 8.3C518.133 11.6 520.42 14 525.268 14C530.208 14 532.404 11.6 535.514 8.3C538.99 4.6 543.289 0 551.522 0C559.755 0 564.055 4.6 567.531 8.3C570.641 11.6 572.928 14 577.777 14C582.716 14 584.912 11.6 588.022 8.3C591.498 4.6 595.798 0 604.031 0C612.264 0 616.563 4.6 620.04 8.3C623.15 11.6 625.437 14 630.285 14C635.225 14 637.421 11.6 640.531 8.3C644.007 4.6 648.306 0 656.539 0C664.773 0 669.072 4.6 672.548 8.3C675.658 11.6 677.945 14 682.794 14C687.734 14 689.929 11.6 693.039 8.3C696.515 4.6 700.815 0 709.048 0C717.281 0 721.581 4.6 725.057 8.3C728.167 11.6 730.454 14 735.302 14C740.242 14 742.438 11.6 745.548 8.3C750.122 4.6 754.421 0 762.746 0C770.979 0 775.278 4.6 778.754 8.3C781.865 11.6 784.152 14 789 14C793.848 14 796.135 11.6 799.246 8.3C802.722 4.6 807.021 0 815.254 0C823.487 0 827.787 4.6 831.263 8.3C834.373 11.6 836.66 14 841.509 14C846.357 14 848.644 11.6 851.754 8.3C855.322 4.6 859.621 0 867.946 0C876.27 0 880.478 4.6 883.954 8.3C887.065 11.6 889.352 14 894.2 14C899.048 14 901.335 11.6 904.446 8.3C907.922 4.6 912.221 0 920.454 0C928.687 0 932.987 4.6 936.463 8.3C939.573 11.6 941.86 14 946.708 14C951.648 14 953.844 11.6 956.954 8.3C960.43 4.6 964.73 0 972.963 0C981.196 0 985.495 4.6 988.971 8.3C992.082 11.6 994.369 14 999.217 14C1004.07 14 1006.35 11.6 1009.46 8.3C1012.94 4.6 1017.24 0 1025.47 0C1033.7 0 1038 4.6 1041.48 8.3C1044.59 11.6 1046.88 14 1051.73 14V23H1052Z" fill="#F1F1F1"/>
</symbol><symbol id="zigzag-line-mobile" viewBox="0 0 320 6">
<path d="M320 6C317.496 6 316.188 4.8 315.13 3.83478C314.184 2.97391 313.489 2.34783 312.014 2.34783C310.511 2.34783 309.843 2.97391 308.897 3.83478C307.84 4.8 306.532 6 304.028 6C301.523 6 300.216 4.8 299.158 3.83478C298.212 2.97391 297.517 2.34783 296.042 2.34783C294.567 2.34783 293.871 2.97391 292.925 3.83478C291.868 4.8 290.56 6 288.056 6C285.551 6 284.243 4.8 283.186 3.83478C282.24 2.97391 281.544 2.34783 280.07 2.34783C278.567 2.34783 277.899 2.97391 276.953 3.83478C275.896 4.8 274.588 6 272.083 6C269.579 6 268.271 4.8 267.214 3.83478C266.268 2.97391 265.572 2.34783 264.097 2.34783C262.595 2.34783 261.927 2.97391 260.981 3.83478C259.812 4.8 258.504 6 256 6C253.496 6 252.188 4.8 251.13 3.83478C250.184 2.97391 249.489 2.34783 248.014 2.34783C246.511 2.34783 245.843 2.97391 244.897 3.83478C243.84 4.8 242.532 6 240.028 6C237.523 6 236.216 4.8 235.158 3.83478C234.212 2.97391 233.517 2.34783 232.042 2.34783C230.539 2.34783 229.871 2.97391 228.925 3.83478C227.812 4.8 226.504 6 224 6C221.496 6 220.188 4.8 219.13 3.83478C218.184 2.97391 217.489 2.34783 216.014 2.34783C214.511 2.34783 213.843 2.97391 212.897 3.83478C211.84 4.8 210.532 6 208.028 6C205.523 6 204.216 4.8 203.158 3.83478C202.212 2.97391 201.517 2.34783 200.042 2.34783C198.567 2.34783 197.871 2.97391 196.925 3.83478C195.84 4.8 194.504 6 192 6C189.496 6 188.188 4.8 187.13 3.83478C186.184 2.97391 185.489 2.34783 184.014 2.34783C182.511 2.34783 181.843 2.97391 180.897 3.83478C179.84 4.8 178.532 6 176.028 6C173.523 6 172.216 4.8 171.158 3.83478C170.212 2.97391 169.517 2.34783 168.042 2.34783C166.539 2.34783 165.871 2.97391 164.925 3.83478C163.868 4.8 162.56 6 160.056 6C157.551 6 156.243 4.8 155.186 3.83478C154.24 2.97391 153.544 2.34783 152.07 2.34783C150.595 2.34783 149.899 2.97391 148.953 3.83478C147.896 4.8 146.588 6 144.083 6C141.579 6 140.271 4.8 139.214 3.83478C138.268 2.97391 137.572 2.34783 136.097 2.34783C134.595 2.34783 133.927 2.97391 132.981 3.83478C131.923 4.8 130.616 6 128.111 6C125.607 6 124.299 4.8 123.242 3.83478C122.296 2.97391 121.6 2.34783 120.125 2.34783C118.623 2.34783 117.955 2.97391 117.009 3.83478C115.951 4.8 114.643 6 112.139 6C109.635 6 108.327 4.8 107.27 3.83478C106.323 2.97391 105.628 2.34783 104.153 2.34783C102.65 2.34783 101.983 2.97391 101.037 3.83478C99.9791 4.8 98.6713 6 96.167 6C93.6626 6 92.3548 4.8 91.2974 3.83478C90.3513 2.97391 89.6556 2.34783 88.1809 2.34783C86.7061 2.34783 86.0104 2.97391 85.0643 3.83478C84.007 4.8 82.6991 6 80.1948 6C77.6904 6 76.3826 4.8 75.3252 3.83478C74.3791 2.97391 73.6835 2.34783 72.2087 2.34783C70.7061 2.34783 70.0383 2.97391 69.0922 3.83478C68.0348 4.8 66.727 6 64.2226 6C61.7183 6 60.4104 4.8 59.353 3.83478C58.407 2.97391 57.7113 2.34783 56.2365 2.34783C54.7339 2.34783 54.0661 2.97391 53.12 3.83478C52.0626 4.8 50.7548 6 48.2504 6C45.7461 6 44.4383 4.8 43.3809 3.83478C42.4348 2.97391 41.7391 2.34783 40.2643 2.34783C38.7617 2.34783 38.0939 2.97391 37.1478 3.83478C35.84 4.8 34.5043 6 32 6C29.4957 6 28.1878 4.8 27.1304 3.83478C26.1843 2.97391 25.4887 2.34783 24.0139 2.34783C22.5113 2.34783 21.8435 2.97391 20.8974 3.83478C19.84 4.8 18.5322 6 16.0278 6C13.5235 6 12.2157 4.8 11.1583 3.83478C10.1843 2.97391 9.4887 2.34783 8.01391 2.34783C6.5113 2.34783 5.84348 2.97391 4.89739 3.83478C3.81217 4.8 2.50435 6 0 6V3.65217C1.50261 3.65217 2.17043 3.02609 3.11652 2.16522C4.17391 1.2 5.48174 0 8.01391 0C10.5183 0 11.8261 1.2 12.8835 2.16522C13.8296 3.02609 14.5252 3.65217 16 3.65217C17.5026 3.65217 18.1704 3.02609 19.1165 2.16522C20.1739 1.2 21.5096 0 24.0139 0C26.5183 0 27.8261 1.2 28.8835 2.16522C29.8296 3.02609 30.5252 3.65217 32 3.65217C33.5026 3.65217 34.1704 3.02609 35.1165 2.16522C36.1739 1.2 37.4817 0 39.9861 0C42.4904 0 43.7983 1.2 44.8556 2.16522C45.8017 3.02609 46.4974 3.65217 47.9722 3.65217C49.4748 3.65217 50.1426 3.02609 51.0887 2.16522C52.1461 1.2 53.4539 0 55.9583 0C58.4626 0 59.7704 1.2 60.8278 2.16522C61.7739 3.02609 62.4696 3.65217 63.9443 3.65217C65.447 3.65217 66.1148 3.02609 67.0609 2.16522C68.1183 1.2 69.4261 0 71.9304 0C74.4348 0 75.7426 1.2 76.8 2.16522C77.7461 3.02609 78.4417 3.65217 79.9165 3.65217C81.4191 3.65217 82.087 3.02609 83.033 2.16522C84.0904 1.2 85.3983 0 87.9026 0C90.407 0 91.7148 1.2 92.7722 2.16522C93.7183 3.02609 94.4139 3.65217 95.8887 3.65217C97.3913 3.65217 98.0591 3.02609 99.0052 2.16522C100.063 1.2 101.37 0 103.875 0C106.379 0 107.687 1.2 108.744 2.16522C109.69 3.02609 110.386 3.65217 111.861 3.65217C113.336 3.65217 114.031 3.02609 114.977 2.16522C116.035 1.2 117.343 0 119.847 0C122.351 0 123.659 1.2 124.717 2.16522C125.663 3.02609 126.358 3.65217 127.833 3.65217C129.336 3.65217 130.003 3.02609 130.95 2.16522C132.007 1.2 133.315 0 135.819 0C138.323 0 139.631 1.2 140.689 2.16522C141.635 3.02609 142.33 3.65217 143.805 3.65217C145.308 3.65217 145.976 3.02609 146.922 2.16522C147.979 1.2 149.287 0 151.791 0C154.296 0 155.603 1.2 156.661 2.16522C157.607 3.02609 158.303 3.65217 159.777 3.65217C161.28 3.65217 161.948 3.02609 162.894 2.16522C163.951 1.2 165.259 0 167.763 0C170.268 0 171.576 1.2 172.633 2.16522C173.579 3.02609 174.275 3.65217 175.75 3.65217C177.252 3.65217 177.92 3.02609 178.866 2.16522C179.923 1.2 181.231 0 183.736 0C186.24 0 187.548 1.2 188.605 2.16522C189.551 3.02609 190.247 3.65217 191.722 3.65217C193.224 3.65217 193.892 3.02609 194.838 2.16522C195.896 1.2 197.203 0 199.708 0C202.212 0 203.52 1.2 204.577 2.16522C205.523 3.02609 206.219 3.65217 207.694 3.65217C209.197 3.65217 209.864 3.02609 210.81 2.16522C211.868 1.2 213.176 0 215.68 0C218.184 0 219.492 1.2 220.55 2.16522C221.496 3.02609 222.191 3.65217 223.666 3.65217C225.169 3.65217 225.837 3.02609 226.783 2.16522C228.174 1.2 229.482 0 232.014 0C234.518 0 235.826 1.2 236.883 2.16522C237.83 3.02609 238.525 3.65217 240 3.65217C241.475 3.65217 242.17 3.02609 243.117 2.16522C244.174 1.2 245.482 0 247.986 0C250.49 0 251.798 1.2 252.856 2.16522C253.802 3.02609 254.497 3.65217 255.972 3.65217C257.447 3.65217 258.143 3.02609 259.089 2.16522C260.174 1.2 261.482 0 264.014 0C266.546 0 267.826 1.2 268.883 2.16522C269.83 3.02609 270.525 3.65217 272 3.65217C273.475 3.65217 274.17 3.02609 275.117 2.16522C276.174 1.2 277.482 0 279.986 0C282.49 0 283.798 1.2 284.856 2.16522C285.802 3.02609 286.497 3.65217 287.972 3.65217C289.475 3.65217 290.143 3.02609 291.089 2.16522C292.146 1.2 293.454 0 295.958 0C298.463 0 299.77 1.2 300.828 2.16522C301.774 3.02609 302.47 3.65217 303.944 3.65217C305.419 3.65217 306.115 3.02609 307.061 2.16522C308.118 1.2 309.426 0 311.93 0C314.435 0 315.743 1.2 316.8 2.16522C317.746 3.02609 318.442 3.65217 319.917 3.65217V6H320Z" fill="#F1F1F1"/>
</symbol><symbol id="zigzag-line-tablet" viewBox="0 0 768 17">
<path d="M770 17C763.958 17 760.803 13.6 758.252 10.8652C755.97 8.42609 754.291 6.65217 750.734 6.65217C747.109 6.65217 745.497 8.42609 743.215 10.8652C740.664 13.6 737.509 17 731.467 17C725.425 17 722.27 13.6 719.719 10.8652C717.437 8.42609 715.759 6.65217 712.201 6.65217C708.643 6.65217 706.965 8.42609 704.682 10.8652C702.131 13.6 698.976 17 692.934 17C686.892 17 683.737 13.6 681.186 10.8652C678.904 8.42609 677.226 6.65217 673.668 6.65217C670.043 6.65217 668.432 8.42609 666.149 10.8652C663.598 13.6 660.443 17 654.401 17C648.36 17 645.205 13.6 642.654 10.8652C640.371 8.42609 638.693 6.65217 635.135 6.65217C631.51 6.65217 629.899 8.42609 627.616 10.8652C624.797 13.6 621.642 17 615.6 17C609.558 17 606.403 13.6 603.852 10.8652C601.57 8.42609 599.891 6.65217 596.334 6.65217C592.709 6.65217 591.097 8.42609 588.815 10.8652C586.264 13.6 583.109 17 577.067 17C571.025 17 567.87 13.6 565.319 10.8652C563.037 8.42609 561.359 6.65217 557.801 6.65217C554.176 6.65217 552.565 8.42609 550.282 10.8652C547.597 13.6 544.442 17 538.4 17C532.358 17 529.203 13.6 526.652 10.8652C524.37 8.42609 522.691 6.65217 519.134 6.65217C515.509 6.65217 513.897 8.42609 511.615 10.8652C509.064 13.6 505.909 17 499.867 17C493.825 17 490.67 13.6 488.119 10.8652C485.837 8.42609 484.159 6.65217 480.601 6.65217C477.043 6.65217 475.365 8.42609 473.082 10.8652C470.464 13.6 467.242 17 461.2 17C455.158 17 452.003 13.6 449.452 10.8652C447.17 8.42609 445.491 6.65217 441.934 6.65217C438.309 6.65217 436.697 8.42609 434.415 10.8652C431.864 13.6 428.709 17 422.667 17C416.625 17 413.47 13.6 410.919 10.8652C408.637 8.42609 406.959 6.65217 403.401 6.65217C399.776 6.65217 398.165 8.42609 395.882 10.8652C393.331 13.6 390.176 17 384.134 17C378.093 17 374.937 13.6 372.386 10.8652C370.104 8.42609 368.426 6.65217 364.868 6.65217C361.31 6.65217 359.632 8.42609 357.349 10.8652C354.798 13.6 351.643 17 345.601 17C339.56 17 336.405 13.6 333.854 10.8652C331.571 8.42609 329.893 6.65217 326.335 6.65217C322.71 6.65217 321.099 8.42609 318.816 10.8652C316.265 13.6 313.11 17 307.069 17C301.027 17 297.872 13.6 295.321 10.8652C293.038 8.42609 291.36 6.65217 287.802 6.65217C284.177 6.65217 282.566 8.42609 280.283 10.8652C277.733 13.6 274.577 17 268.536 17C262.494 17 259.339 13.6 256.788 10.8652C254.505 8.42609 252.827 6.65217 249.269 6.65217C245.644 6.65217 244.033 8.42609 241.751 10.8652C239.2 13.6 236.045 17 230.003 17C223.961 17 220.806 13.6 218.255 10.8652C215.973 8.42609 214.294 6.65217 210.736 6.65217C207.178 6.65217 205.5 8.42609 203.218 10.8652C200.667 13.6 197.512 17 191.47 17C185.428 17 182.273 13.6 179.722 10.8652C177.44 8.42609 175.761 6.65217 172.203 6.65217C168.578 6.65217 166.967 8.42609 164.685 10.8652C162.134 13.6 158.979 17 152.937 17C146.895 17 143.74 13.6 141.189 10.8652C138.907 8.42609 137.229 6.65217 133.671 6.65217C130.046 6.65217 128.434 8.42609 126.152 10.8652C123.601 13.6 120.446 17 114.404 17C108.362 17 105.207 13.6 102.656 10.8652C100.374 8.42609 98.6956 6.65217 95.1377 6.65217C91.5127 6.65217 89.9016 8.42609 87.6191 10.8652C84.464 13.6 81.2417 17 75.2 17C69.1583 17 66.0031 13.6 63.4522 10.8652C61.1697 8.42609 59.4915 6.65217 55.9336 6.65217C52.3085 6.65217 50.6974 8.42609 48.415 10.8652C45.864 13.6 42.7089 17 36.6671 17C30.6254 17 27.4703 13.6 24.9193 10.8652C22.5697 8.42609 20.8915 6.65217 17.3336 6.65217C13.7085 6.65217 12.0974 8.42609 9.81496 10.8652C7.19687 13.6 4.04174 17 -2 17V10.3478C1.62504 10.3478 3.23617 8.57391 5.51861 6.13478C8.06957 3.4 11.2247 0 17.3336 0C23.3753 0 26.5304 3.4 29.0814 6.13478C31.3638 8.57391 33.0421 10.3478 36.6 10.3478C40.225 10.3478 41.8362 8.57391 44.1186 6.13478C46.6696 3.4 49.8918 0 55.9336 0C61.9753 0 65.1304 3.4 67.6814 6.13478C69.9638 8.57391 71.6421 10.3478 75.2 10.3478C78.825 10.3478 80.4362 8.57391 82.7186 6.13478C85.2696 3.4 88.4247 0 94.4664 0C100.508 0 103.663 3.4 106.214 6.13478C108.497 8.57391 110.175 10.3478 113.733 10.3478C117.358 10.3478 118.969 8.57391 121.251 6.13478C123.802 3.4 126.958 0 132.999 0C139.041 0 142.196 3.4 144.747 6.13478C147.03 8.57391 148.708 10.3478 152.266 10.3478C155.891 10.3478 157.502 8.57391 159.784 6.13478C162.335 3.4 165.49 0 171.532 0C177.574 0 180.729 3.4 183.28 6.13478C185.562 8.57391 187.241 10.3478 190.799 10.3478C194.424 10.3478 196.035 8.57391 198.317 6.13478C200.868 3.4 204.023 0 210.065 0C216.107 0 219.262 3.4 221.813 6.13478C224.095 8.57391 225.774 10.3478 229.331 10.3478C232.957 10.3478 234.568 8.57391 236.85 6.13478C239.401 3.4 242.556 0 248.598 0C254.64 0 257.795 3.4 260.346 6.13478C262.628 8.57391 264.306 10.3478 267.864 10.3478C271.422 10.3478 273.101 8.57391 275.383 6.13478C277.934 3.4 281.089 0 287.131 0C293.173 0 296.328 3.4 298.879 6.13478C301.161 8.57391 302.839 10.3478 306.397 10.3478C310.022 10.3478 311.633 8.57391 313.916 6.13478C316.467 3.4 319.622 0 325.664 0C331.705 0 334.861 3.4 337.411 6.13478C339.694 8.57391 341.372 10.3478 344.93 10.3478C348.555 10.3478 350.166 8.57391 352.449 6.13478C355 3.4 358.155 0 364.197 0C370.238 0 373.393 3.4 375.944 6.13478C378.227 8.57391 379.905 10.3478 383.463 10.3478C387.088 10.3478 388.699 8.57391 390.982 6.13478C393.533 3.4 396.688 0 402.729 0C408.771 0 411.926 3.4 414.477 6.13478C416.76 8.57391 418.438 10.3478 421.996 10.3478C425.621 10.3478 427.232 8.57391 429.514 6.13478C432.065 3.4 435.22 0 441.262 0C447.304 0 450.459 3.4 453.01 6.13478C455.293 8.57391 456.971 10.3478 460.529 10.3478C464.154 10.3478 465.765 8.57391 468.047 6.13478C470.598 3.4 473.753 0 479.795 0C485.837 0 488.992 3.4 491.543 6.13478C493.825 8.57391 495.504 10.3478 499.062 10.3478C502.687 10.3478 504.298 8.57391 506.58 6.13478C509.131 3.4 512.286 0 518.328 0C524.37 0 527.525 3.4 530.076 6.13478C532.358 8.57391 534.037 10.3478 537.594 10.3478C541.219 10.3478 542.831 8.57391 545.113 6.13478C548.47 3.4 551.625 0 557.734 0C563.775 0 566.93 3.4 569.481 6.13478C571.764 8.57391 573.442 10.3478 577 10.3478C580.558 10.3478 582.236 8.57391 584.519 6.13478C587.07 3.4 590.225 0 596.266 0C602.308 0 605.463 3.4 608.014 6.13478C610.297 8.57391 611.975 10.3478 615.533 10.3478C619.091 10.3478 620.769 8.57391 623.051 6.13478C625.67 3.4 628.825 0 634.934 0C641.042 0 644.13 3.4 646.681 6.13478C648.964 8.57391 650.642 10.3478 654.2 10.3478C657.758 10.3478 659.436 8.57391 661.719 6.13478C664.27 3.4 667.425 0 673.466 0C679.508 0 682.663 3.4 685.214 6.13478C687.497 8.57391 689.175 10.3478 692.733 10.3478C696.358 10.3478 697.969 8.57391 700.251 6.13478C702.802 3.4 705.958 0 711.999 0C718.041 0 721.196 3.4 723.747 6.13478C726.03 8.57391 727.708 10.3478 731.266 10.3478C734.824 10.3478 736.502 8.57391 738.784 6.13478C741.335 3.4 744.49 0 750.532 0C756.574 0 759.729 3.4 762.28 6.13478C764.562 8.57391 766.241 10.3478 769.799 10.3478V17H770Z" fill="#F1F1F1"/>
</symbol></svg>