<svg width="733" height="33" viewBox="0 0 733 33" fill="none" xmlns="http://www.w3.org/2000/svg">
<mask id="mask0" style="mask-type:alpha" maskUnits="userSpaceOnUse" x="0" y="0" width="733" height="33">
<rect width="733" height="33" fill="#EB1919"/>
</mask>
<g mask="url(#mask0)">
<path d="M731.783 9C722.142 9 722.142 18.8824 712.567 18.8824C702.992 18.8824 702.925 9 693.35 9C683.776 9 683.709 18.8824 674.134 18.8824C664.492 18.8824 664.492 9 654.85 9C645.209 9 645.209 18.8824 635.634 18.8824C625.992 18.8824 625.992 9 616.417 9C606.776 9 606.776 18.8824 597.201 18.8824C587.626 18.8824 587.358 9 577.783 9C568.142 9 568.142 18.8824 558.567 18.8824C548.992 18.8824 548.858 9 539.283 9C529.642 9 529.642 18.8824 520.067 18.8824C510.425 18.8824 510.425 9 500.783 9C491.142 9 491.142 18.8824 481.567 18.8824C471.925 18.8824 471.925 9 462.35 9C452.776 9 452.642 18.8824 443 18.8824C433.358 18.8824 433.358 9 423.783 9C414.142 9 414.142 18.8824 404.567 18.8824C394.925 18.8824 394.925 9 385.283 9C375.642 9 375.642 18.8824 366.067 18.8824C356.425 18.8824 356.425 9 346.85 9C337.209 9 337.209 18.8824 327.634 18.8824C317.992 18.8824 317.992 9 308.417 9C298.776 9 298.776 18.8824 289.134 18.8824C279.492 18.8824 279.492 9 269.85 9C260.209 9 260.209 18.8824 250.567 18.8824C240.925 18.8824 240.925 9 231.283 9C221.642 9 221.642 18.8824 212 18.8824C202.358 18.8824 202.358 9 192.717 9C183.075 9 183.075 18.8824 173.433 18.8824C163.791 18.8824 163.791 9 154.15 9C144.508 9 144.508 18.8824 134.933 18.8824C125.291 18.8824 125.291 9 115.65 9C106.008 9 106.008 18.8824 96.3661 18.8824C86.7243 18.8824 86.7243 9 77.0826 9C67.4409 9 67.4409 18.8824 57.7991 18.8824C48.1574 18.8824 48.1574 9 38.5157 9C29.1417 9 29.1417 18.8824 19.5 18.8824C9.85826 18.8824 9.85826 9 0.283477 9C-9.29131 9 -9.35826 18.8824 -19 18.8824V33H751V18.8824C741.358 18.8824 741.358 9 731.783 9Z" fill="white"/>
</g>
</svg>
